<?xml version="1.0" encoding="UTF-8"?>
<svg id="Capa_1" data-name="Capa 1" xmlns="http://www.w3.org/2000/svg" viewBox="0 0 288 192">
  <defs>
    <style>
      .cls-1 {
        fill: #b2200b;
      }

      .cls-2 {
        fill: #ff684d;
      }

      .cls-3 {
        fill: #1b1b1b;
      }

      .cls-4 {
        fill: #ff2802;
      }

      .cls-5 {
        fill: #d22e10;
      }

      .cls-6 {
        fill: none;
      }
    </style>
  </defs>
  <g>
    <path class="cls-3" d="M143.79,31.1c-11.48,0-20.14,3.9-20.14,9.07s8.65,9.07,20.14,9.07,20.14-3.9,20.14-9.07-8.65-9.07-20.14-9.07h0Zm0,4.96c7.42,0,12.16,2.44,12.16,4.12s-4.74,4.12-12.16,4.12-12.16-2.44-12.16-4.12,4.74-4.12,12.16-4.12h0Z"/>
    <path class="cls-3" d="M204.66,110.37c-1.01-1.1-2.46-1.73-3.99-1.73H86.91c-1.53,0-2.98,.63-3.99,1.73-.97,1.06-1.42,2.41-1.28,3.8l2.67,27.45c.26,2.62,2.52,4.59,5.26,4.59h108.41c2.75,0,5.02-1.98,5.26-4.59l2.67-27.45c.13-1.4-.32-2.75-1.28-3.8h.02Z"/>
    <path class="cls-4" d="M143.79,40.24c28.8,0,52.18,23.26,52.18,51.91v50.6c0,9.9-8.08,17.95-18.04,17.95H109.65c-9.96,0-18.04-8.04-18.04-17.95v-50.6c0-28.65,23.38-51.91,52.18-51.91h0Z"/>
    <path class="cls-5" d="M112.94,110.51v30.51c0,3.32,2.29,6.01,5.11,6.01h53.14c2.82,0,5.11-2.69,5.11-6.01v-30.51h-63.36Z"/>
    <path class="cls-1" d="M169.87,116.37h-46.49v2.06h46.49v-2.06Z"/>
    <path class="cls-1" d="M121.36,116.37h-1.97v2.06h1.97v-2.06Z"/>
    <path class="cls-1" d="M121.42,120.07h-2.07v2.66h2.07v-2.66Z"/>
    <path class="cls-2" d="M175.05,73.54h-56.88v2.06h56.88v-2.06Z"/>
    <path class="cls-2" d="M116.16,73.54h-1.97v2.06h1.97v-2.06Z"/>
    <path class="cls-2" d="M116.21,77.24h-2.07v2.66h2.07v-2.66Z"/>
    <path class="cls-3" d="M84.45,15.16h-1.29v.43h1.29v-.43Z"/>
    <path class="cls-3" d="M200.48,15.58h-2.64v-.43h2.64v.43Zm-5.27,0h-2.64v-.43h2.64v.43Zm-5.27,0h-2.64v-.43h2.64v.43Zm-5.27,0h-2.64v-.43h2.64v.43Zm-5.27,0h-2.64v-.43h2.64v.43Zm-5.27,0h-2.64v-.43h2.64v.43Zm-5.27,0h-2.64v-.43h2.64v.43Zm-5.27,0h-2.64v-.43h2.64v.43Zm-5.27,0h-2.64v-.43h2.64v.43Zm-5.27,0h-2.64v-.43h2.64v.43Zm-5.27,0h-2.64v-.43h2.64v.43Zm-5.27,0h-2.64v-.43h2.64v.43Zm-5.27,0h-2.64v-.43h2.64v.43Zm-5.27,0h-2.64v-.43h2.64v.43Zm-5.27,0h-2.64v-.43h2.64v.43Zm-5.27,0h-2.64v-.43h2.64v.43Zm-5.27,0h-2.64v-.43h2.64v.43Zm-5.27,0h-2.64v-.43h2.64v.43Zm-5.27,0h-2.64v-.43h2.64v.43Zm-5.27,0h-2.64v-.43h2.64v.43Zm-5.27,0h-2.64v-.43h2.64v.43Zm-5.27,0h-2.64v-.43h2.64v.43Z"/>
    <path class="cls-3" d="M204.41,15.16h-1.29v.43h1.29v-.43Z"/>
    <path class="cls-3" d="M83.24,16.98c-.89,0-1.62-.72-1.62-1.62s.72-1.62,1.62-1.62,1.62,.72,1.62,1.62-.72,1.62-1.62,1.62Z"/>
    <path class="cls-3" d="M204.33,16.98c.89,0,1.62-.72,1.62-1.62s-.72-1.62-1.62-1.62-1.62,.72-1.62,1.62,.72,1.62,1.62,1.62Z"/>
    <path class="cls-3" d="M66.9,158.13h-.43v1.29h.43v-1.29Z"/>
    <path class="cls-3" d="M66.91,155.6h-.43v-2.54h.43v2.54Zm0-5.08h-.43v-2.54h.43v2.54Zm0-5.08h-.43v-2.54h.43v2.54Zm0-5.08h-.43v-2.54h.43v2.54Zm0-5.08h-.43v-2.54h.43v2.54Zm0-5.08h-.43v-2.54h.43v2.54Zm0-5.08h-.43v-2.54h.43v2.54Zm0-5.08h-.43v-2.54h.43v2.54Zm0-5.08h-.43v-2.54h.43v2.54Zm0-5.08h-.43v-2.54h.43v2.54Zm0-5.08h-.43v-2.54h.43v2.54Zm0-5.08h-.43v-2.54h.43v2.54Zm0-5.08h-.43v-2.54h.43v2.54Zm0-5.08h-.43v-2.54h.43v2.54Zm0-5.08h-.43v-2.54h.43v2.54Zm0-5.08h-.43v-2.54h.43v2.54Zm0-5.08h-.43v-2.54h.43v2.54Zm0-5.08h-.43v-2.54h.43v2.54Zm0-5.08h-.43v-2.54h.43v2.54Zm0-5.08h-.43v-2.54h.43v2.54Zm0-5.08h-.43v-2.54h.43v2.54Zm0-5.08h-.43v-2.54h.43v2.54Zm0-5.08h-.43v-2.54h.43v2.54Zm0-5.08h-.43v-2.54h.43v2.54Z"/>
    <path class="cls-3" d="M66.9,32.38h-.43v1.29h.43v-1.29Z"/>
    <path class="cls-3" d="M66.69,160.96c.9,0,1.62-.72,1.62-1.62s-.73-1.62-1.62-1.62-1.62,.72-1.62,1.62,.73,1.62,1.62,1.62Z"/>
    <path class="cls-3" d="M68.31,32.45c0-.89-.72-1.62-1.62-1.62s-1.62,.72-1.62,1.62,.72,1.62,1.62,1.62,1.62-.72,1.62-1.62Z"/>
    <path class="cls-3" d="M198.39,171.28l-.3-.3,1.83-1.82,.3,.3-1.83,1.82Zm3.66-3.64l-.3-.3,1.83-1.82,.3,.3-1.83,1.82Zm3.66-3.64l-.3-.3,1.83-1.82,.3,.3-1.83,1.82Zm3.66-3.64l-.3-.3,1.83-1.82,.3,.3-1.83,1.82Zm3.66-3.64l-.3-.3,1.38-1.37,.3,.3-1.38,1.37Z"/>
    <path class="cls-3" d="M199.44,172.21c-.64,.63-1.66,.63-2.29,0-.63-.63-.64-1.65,0-2.28,.64-.63,1.66-.63,2.29,0s.64,1.65,0,2.28Z"/>
    <path class="cls-3" d="M215.33,156.4c.64-.63,.64-1.65,0-2.28-.64-.62-1.66-.63-2.29,0-.63,.63-.64,1.65,0,2.28,.64,.62,1.66,.63,2.29,0Z"/>
    <path class="cls-3" d="M115.5,.5c.46,0,.87,.07,1.24,.2,.37,.13,.68,.31,.95,.54,.27,.23,.47,.5,.61,.81,.14,.31,.21,.65,.21,1.01,0,.31-.04,.6-.1,.83-.08,.24-.17,.45-.31,.62-.13,.18-.3,.33-.49,.45-.2,.12-.42,.23-.66,.31,.6,.19,1.05,.47,1.34,.86,.29,.39,.44,.87,.44,1.45,0,.49-.1,.93-.28,1.31-.18,.38-.44,.7-.74,.95-.31,.26-.67,.45-1.08,.59-.41,.13-.85,.2-1.31,.2-.5,0-.94-.06-1.31-.17-.37-.11-.69-.28-.97-.51s-.51-.5-.7-.82c-.19-.32-.36-.7-.49-1.12l.75-.31c.13-.06,.26-.09,.39-.09,.12,0,.23,.03,.32,.08s.17,.12,.22,.22c.09,.16,.17,.32,.28,.47,.1,.15,.22,.29,.35,.42,.14,.12,.3,.22,.48,.29,.19,.08,.41,.11,.66,.11,.28,0,.54-.05,.76-.14,.22-.09,.4-.22,.54-.37,.14-.15,.26-.32,.32-.5,.07-.19,.1-.37,.1-.56,0-.24-.03-.45-.08-.65-.05-.2-.16-.36-.31-.5-.16-.14-.39-.25-.69-.32s-.7-.11-1.21-.11v-1.22c.42,0,.77-.04,1.04-.11,.28-.08,.49-.18,.66-.3,.16-.13,.28-.28,.34-.47,.07-.18,.09-.39,.09-.6,0-.47-.13-.83-.39-1.07-.26-.24-.61-.36-1.05-.36-.41,0-.74,.1-1.01,.32s-.46,.48-.56,.82c-.06,.17-.13,.3-.23,.38-.09,.08-.22,.11-.38,.11-.08,0-.15,0-.24-.02l-.89-.15c.07-.47,.2-.9,.4-1.26,.2-.36,.45-.66,.74-.9,.29-.24,.64-.43,1.02-.54,.38-.12,.8-.18,1.23-.18h0Z"/>
    <path class="cls-3" d="M126.01,1.33c0,.25-.08,.43-.23,.59-.15,.15-.41,.23-.77,.23h-2.75l-.36,2.07c.45-.09,.86-.14,1.23-.14,.52,0,.99,.08,1.39,.24,.4,.15,.73,.37,1.01,.64,.28,.27,.47,.6,.62,.96,.14,.37,.21,.77,.21,1.19,0,.53-.09,1-.28,1.44-.19,.43-.45,.8-.78,1.12-.33,.31-.72,.55-1.18,.72-.46,.17-.95,.26-1.48,.26-.31,0-.61-.03-.89-.09s-.54-.15-.79-.26c-.25-.1-.47-.23-.68-.37-.21-.14-.4-.28-.56-.44l.52-.72c.11-.15,.26-.24,.44-.24,.11,0,.23,.04,.35,.11,.11,.08,.26,.15,.41,.24,.15,.09,.34,.17,.54,.24,.21,.08,.46,.11,.75,.11,.31,0,.59-.05,.83-.15,.24-.1,.44-.25,.6-.43,.16-.18,.28-.4,.36-.64,.08-.25,.12-.52,.12-.81,0-.54-.16-.96-.47-1.27s-.78-.45-1.39-.45c-.48,0-.97,.09-1.45,.26l-1.06-.3,.83-4.82h4.92v.73Z"/>
    <path class="cls-3" d="M135.73,4.98c-.05,.07-.1,.11-.15,.15-.05,.04-.11,.06-.21,.06s-.17-.03-.26-.08c-.09-.06-.18-.11-.29-.18-.11-.07-.26-.12-.41-.18-.15-.06-.35-.08-.59-.08-.29,0-.56,.06-.79,.16-.23,.1-.41,.26-.56,.46-.15,.2-.26,.44-.33,.73-.08,.28-.11,.61-.11,.97s.04,.71,.12,1c.08,.29,.2,.54,.35,.74,.15,.2,.33,.35,.55,.45,.22,.1,.46,.15,.73,.15s.49-.04,.66-.1,.31-.14,.43-.22c.11-.08,.22-.15,.3-.22,.09-.07,.18-.09,.28-.09,.14,0,.24,.06,.31,.16l.49,.61c-.19,.22-.39,.41-.62,.55-.23,.14-.45,.26-.68,.36-.24,.09-.48,.15-.73,.19-.26,.04-.5,.06-.75,.06-.44,0-.85-.09-1.23-.25-.39-.16-.72-.4-1.01-.71-.28-.31-.51-.69-.68-1.14-.17-.45-.26-.96-.26-1.54,0-.52,.08-.99,.23-1.44,.15-.44,.37-.82,.66-1.14,.29-.32,.65-.58,1.07-.76,.43-.18,.92-.27,1.47-.27s.99,.09,1.39,.26c.4,.17,.75,.42,1.07,.73l-.45,.61h0Z"/>
    <path class="cls-3" d="M137.34,10.54V3.5h1.04c.22,0,.36,.1,.44,.31l.11,.52c.12-.14,.26-.26,.39-.38s.28-.22,.44-.29c.15-.09,.32-.15,.49-.2s.37-.08,.58-.08c.45,0,.82,.12,1.1,.36s.5,.56,.65,.95c.11-.24,.25-.43,.42-.6,.16-.17,.35-.3,.54-.41,.19-.1,.41-.18,.63-.24,.23-.05,.45-.08,.67-.08,.39,0,.74,.06,1.04,.18,.3,.12,.56,.29,.77,.52,.21,.23,.36,.51,.47,.84,.1,.33,.16,.71,.16,1.13v4.48h-1.7V6.05c0-.44-.1-.78-.29-1.01-.2-.23-.48-.34-.87-.34-.17,0-.33,.03-.48,.09-.15,.06-.28,.14-.39,.26-.11,.11-.2,.26-.27,.43-.07,.17-.09,.36-.09,.59v4.48h-1.71V6.05c0-.47-.09-.81-.28-1.03-.19-.22-.47-.32-.85-.32-.25,0-.47,.06-.68,.18-.22,.12-.41,.28-.6,.5v5.15h-1.73Z"/>
    <path class="cls-3" d="M155.68,7.14c0,.73,.1,1.44,.28,2.13,.18,.69,.45,1.34,.8,1.96,.06,.11,.08,.2,.05,.26s-.08,.11-.13,.15l-.45,.27c-.26-.4-.47-.78-.66-1.17-.18-.39-.32-.78-.44-1.17-.11-.4-.19-.79-.25-1.19s-.08-.81-.08-1.23,.03-.83,.08-1.24c.05-.41,.13-.8,.25-1.19s.26-.78,.44-1.17c.18-.39,.4-.78,.66-1.17l.45,.27c.06,.04,.1,.09,.13,.15,.03,.06,0,.15-.05,.26-.35,.61-.62,1.28-.8,1.97-.18,.69-.28,1.4-.28,2.13v-.02Z"/>
    <path class="cls-3" d="M162.44,9.61v.77h-4.02v-.77h1.58V4.76c0-.15,0-.31,.02-.48l-1.26,1.07s-.09,.07-.14,.08c-.05,0-.1,0-.13,0-.04,0-.08-.02-.11-.05-.03-.02-.06-.05-.08-.07l-.31-.43,2.22-1.91h.83v6.63h1.42Z"/>
    <path class="cls-3" d="M168.86,7.67v.59c0,.06-.02,.1-.06,.15-.04,.05-.1,.07-.16,.07h-.85v1.9h-.88v-1.9h-3.26c-.08,0-.14-.02-.19-.07-.05-.05-.09-.09-.1-.16l-.1-.51,3.59-4.75h.95V7.67h1.07Zm-1.96,0v-3.19c0-.11,.02-.23,.04-.35l-2.6,3.54h2.56Z"/>
    <path class="cls-3" d="M170.54,2.49c.15,.25,.26,.51,.3,.79,.06,.27,.06,.55,.02,.82-.04,.27-.13,.53-.27,.77-.13,.25-.32,.47-.55,.67l-.31-.2c-.06-.04-.09-.09-.08-.13,0-.06,.03-.09,.06-.12,.09-.1,.16-.23,.23-.39,.07-.15,.1-.32,.12-.5s0-.37-.02-.56c-.03-.19-.1-.38-.22-.57-.05-.08-.07-.15-.04-.21,.03-.06,.07-.1,.13-.13l.62-.25h0Z"/>
    <path class="cls-3" d="M172.77,2.49c.15,.25,.26,.51,.3,.79,.06,.27,.06,.55,.02,.82-.04,.27-.13,.53-.27,.77-.13,.25-.32,.47-.55,.67l-.31-.2c-.06-.04-.09-.09-.08-.13,0-.06,.03-.09,.06-.12,.09-.1,.16-.23,.23-.39,.07-.15,.1-.32,.12-.5,.02-.18,0-.37-.02-.56-.03-.19-.1-.38-.22-.57-.05-.08-.07-.15-.04-.21s.07-.1,.13-.13l.62-.25h0Z"/>
    <path class="cls-3" d="M175.05,7.14c0-.73-.1-1.44-.28-2.13-.18-.69-.46-1.34-.81-1.97-.06-.11-.08-.2-.05-.26,.03-.07,.08-.11,.13-.15l.45-.27c.26,.4,.47,.78,.66,1.17,.18,.39,.32,.78,.44,1.17,.11,.39,.2,.79,.25,1.19,.05,.4,.08,.81,.08,1.24s-.03,.83-.08,1.23-.13,.79-.25,1.19c-.11,.4-.26,.78-.44,1.17-.18,.39-.4,.78-.66,1.17l-.45-.27c-.06-.04-.1-.09-.13-.15-.03-.07-.02-.15,.05-.26,.35-.61,.62-1.27,.81-1.96,.18-.69,.28-1.4,.28-2.13v.02Z"/>
    <path class="cls-3" d="M29.69,89.73h1.25v.98c0,.09-.03,.17-.09,.24-.06,.07-.14,.09-.27,.09h-.9v2.42h-1.49v-2.42h-4.2c-.11,0-.22-.04-.3-.1-.09-.08-.14-.16-.16-.26l-.17-.86,4.72-6.28h1.61v6.19h0Zm-1.49-3.24c0-.14,0-.3,0-.47,0-.17,.03-.35,.05-.53l-3.1,4.24h3.03v-3.24h0Z"/>
    <path class="cls-3" d="M38.02,84.27c0,.25-.08,.43-.23,.59-.15,.15-.41,.23-.77,.23h-2.75l-.36,2.07c.45-.09,.86-.14,1.23-.14,.52,0,.99,.08,1.39,.24s.73,.37,1.01,.64,.47,.6,.62,.96c.14,.37,.21,.77,.21,1.19,0,.53-.09,1.01-.28,1.45-.19,.43-.45,.8-.78,1.12-.33,.31-.72,.55-1.18,.72-.46,.17-.95,.26-1.48,.26-.31,0-.61-.03-.89-.09-.28-.07-.54-.15-.79-.26s-.47-.23-.68-.37c-.21-.14-.4-.28-.56-.44l.52-.72c.11-.15,.26-.24,.44-.24,.11,0,.23,.04,.35,.11,.11,.08,.26,.15,.41,.24,.15,.09,.34,.17,.54,.24s.46,.11,.75,.11c.31,0,.59-.05,.83-.15s.44-.24,.6-.43c.16-.19,.28-.4,.36-.64,.08-.25,.12-.52,.12-.81,0-.54-.16-.96-.47-1.27s-.78-.45-1.39-.45c-.48,0-.97,.09-1.45,.26l-1.06-.3,.83-4.82h4.92v.72h0Z"/>
    <path class="cls-3" d="M47.74,87.92c-.05,.07-.1,.11-.15,.15-.05,.04-.11,.06-.21,.06s-.17-.03-.26-.08c-.09-.06-.18-.11-.29-.18-.11-.07-.26-.12-.41-.18-.15-.06-.35-.08-.59-.08-.29,0-.56,.06-.79,.16s-.41,.26-.56,.46c-.15,.2-.26,.44-.33,.73-.08,.28-.11,.61-.11,.97s.04,.71,.12,1c.08,.29,.2,.54,.35,.74,.15,.2,.33,.35,.55,.45s.46,.15,.73,.15,.49-.04,.66-.1c.16-.07,.31-.14,.43-.22,.11-.08,.22-.15,.3-.22,.09-.07,.18-.1,.28-.1,.14,0,.24,.06,.31,.16l.49,.61c-.19,.22-.39,.41-.62,.55-.23,.14-.45,.26-.68,.36-.24,.09-.48,.15-.73,.19-.26,.04-.5,.06-.75,.06-.44,0-.85-.09-1.23-.25s-.72-.4-1.01-.71-.51-.69-.68-1.14c-.17-.45-.26-.96-.26-1.54,0-.52,.08-.99,.23-1.44s.37-.82,.66-1.14c.29-.32,.65-.58,1.07-.76,.43-.18,.92-.27,1.47-.27s.99,.09,1.39,.26,.75,.42,1.07,.73l-.45,.61h0Z"/>
    <path class="cls-3" d="M49.34,93.46v-7.04h1.04c.22,0,.36,.1,.44,.31l.11,.52c.12-.13,.26-.26,.39-.38,.13-.11,.28-.22,.44-.29,.15-.08,.32-.15,.49-.2,.18-.05,.37-.08,.58-.08,.45,0,.82,.12,1.1,.36s.5,.56,.65,.95c.11-.24,.25-.43,.42-.6s.35-.3,.54-.41c.2-.1,.41-.18,.63-.24,.22-.05,.45-.08,.67-.08,.39,0,.74,.06,1.04,.18,.3,.12,.56,.29,.77,.52,.21,.23,.36,.51,.47,.84,.1,.33,.16,.71,.16,1.13v4.48h-1.7v-4.48c0-.44-.09-.78-.29-1.01-.2-.23-.48-.34-.87-.34-.17,0-.33,.03-.48,.09-.15,.06-.28,.14-.39,.26-.11,.11-.2,.26-.27,.43s-.09,.36-.09,.59v4.48h-1.71v-4.48c0-.47-.09-.81-.28-1.03-.19-.22-.47-.32-.85-.32-.25,0-.47,.06-.68,.18-.22,.12-.41,.28-.6,.5v5.15h-1.73Z"/>
    <path class="cls-3" d="M38.3,104.08c0,.73,.09,1.44,.28,2.13,.18,.69,.45,1.34,.8,1.97,.06,.11,.08,.2,.05,.26-.03,.07-.07,.11-.13,.15l-.45,.27c-.26-.4-.47-.78-.66-1.17-.18-.39-.32-.78-.44-1.17-.11-.4-.19-.79-.25-1.19-.05-.4-.08-.81-.08-1.23s.03-.83,.08-1.24c.05-.4,.13-.79,.25-1.19,.11-.4,.26-.78,.44-1.17,.18-.39,.4-.78,.66-1.17l.45,.27c.06,.04,.1,.09,.13,.15,.03,.07,0,.15-.05,.26-.35,.61-.62,1.28-.8,1.97-.18,.69-.28,1.4-.28,2.13v-.03Z"/>
    <path class="cls-3" d="M45.05,106.55v.77h-4.02v-.77h1.58v-4.84c0-.15,0-.31,.02-.48l-1.26,1.07s-.09,.07-.14,.08c-.05,0-.09,0-.13,0-.05,0-.09-.02-.11-.05-.03-.02-.06-.05-.08-.07l-.31-.43,2.22-1.91h.83v6.63h1.42Z"/>
    <path class="cls-3" d="M49.87,103.46c.47,.14,.82,.36,1.05,.66s.36,.69,.36,1.15c0,.32-.06,.61-.18,.88-.12,.26-.29,.48-.51,.67-.22,.18-.48,.32-.8,.43-.31,.09-.66,.15-1.03,.15s-.71-.05-1.03-.15-.58-.25-.8-.43c-.22-.18-.4-.41-.51-.67-.12-.26-.18-.55-.18-.88,0-.46,.12-.85,.36-1.15s.59-.53,1.05-.66c-.38-.14-.67-.36-.86-.64-.19-.28-.28-.62-.28-1.02,0-.27,.06-.53,.16-.77,.1-.24,.27-.44,.46-.62,.2-.17,.44-.31,.71-.42,.28-.1,.59-.15,.92-.15s.65,.05,.93,.15c.28,.1,.52,.24,.71,.42,.2,.18,.35,.38,.46,.62,.1,.24,.16,.49,.16,.77,0,.4-.09,.74-.28,1.02-.19,.28-.48,.5-.86,.64h0Zm-1.11,3.14c.24,0,.45-.03,.63-.09s.34-.16,.47-.27c.12-.12,.23-.26,.29-.43,.07-.16,.09-.35,.09-.54,0-.24-.04-.44-.12-.62-.08-.17-.19-.31-.32-.43s-.29-.2-.47-.25c-.18-.06-.37-.08-.57-.08s-.4,.03-.57,.08c-.18,.06-.33,.13-.47,.25-.13,.11-.24,.26-.31,.43s-.11,.38-.11,.62c0,.2,.03,.38,.09,.54,.07,.16,.16,.3,.28,.43,.12,.11,.28,.21,.47,.27s.39,.09,.63,.09h0Zm0-5.98c-.22,0-.4,.03-.56,.09s-.29,.15-.4,.26c-.1,.11-.19,.24-.24,.38-.06,.14-.08,.3-.08,.46s.02,.32,.07,.47c.05,.15,.12,.29,.22,.41,.1,.11,.24,.22,.4,.28,.16,.08,.36,.1,.6,.1s.43-.04,.59-.1,.29-.17,.4-.28c.1-.11,.18-.26,.22-.41,.05-.15,.07-.31,.07-.47s-.03-.32-.08-.46c-.05-.14-.13-.27-.24-.38-.1-.11-.24-.2-.4-.26s-.35-.09-.56-.09h0Z"/>
    <path class="cls-3" d="M53.16,99.44c.15,.26,.26,.51,.3,.79,.06,.27,.06,.55,.02,.82-.04,.27-.13,.53-.27,.77-.14,.25-.32,.47-.55,.67l-.31-.2c-.06-.04-.09-.09-.08-.13,0-.06,.03-.09,.06-.12,.09-.1,.16-.23,.23-.39,.07-.15,.1-.32,.12-.5,.02-.18,0-.37-.02-.56-.04-.19-.1-.38-.22-.57-.05-.08-.07-.15-.04-.21,.03-.06,.07-.1,.13-.13l.62-.25h0Z"/>
    <path class="cls-3" d="M55.38,99.44c.15,.26,.26,.51,.3,.79,.06,.27,.06,.55,.02,.82s-.13,.53-.27,.77c-.14,.25-.32,.47-.55,.67l-.31-.2c-.06-.04-.09-.09-.08-.13,0-.06,.03-.09,.06-.12,.09-.1,.16-.23,.23-.39,.07-.15,.1-.32,.12-.5,.02-.18,0-.37-.02-.56-.04-.19-.1-.38-.22-.57-.05-.08-.07-.15-.04-.21,.03-.06,.07-.1,.13-.13l.62-.25h0Z"/>
    <path class="cls-3" d="M57.66,104.08c0-.73-.09-1.44-.28-2.13-.18-.69-.46-1.34-.81-1.97-.06-.11-.08-.2-.05-.26,.03-.07,.08-.11,.13-.15l.45-.27c.26,.4,.47,.78,.66,1.17,.18,.39,.32,.78,.44,1.17,.11,.4,.2,.79,.25,1.19s.08,.81,.08,1.24-.03,.83-.08,1.23-.13,.79-.25,1.19c-.11,.4-.26,.78-.44,1.17-.18,.39-.4,.78-.66,1.17l-.45-.27c-.06-.04-.1-.09-.13-.15-.03-.07-.02-.15,.05-.26,.35-.61,.62-1.28,.81-1.97,.19-.69,.28-1.4,.28-2.13v.03Z"/>
    <path class="cls-3" d="M216.68,166.07c.46,0,.88,.07,1.26,.2,.38,.13,.71,.32,.98,.58,.28,.25,.48,.55,.64,.89,.15,.35,.23,.74,.23,1.16,0,.37-.06,.71-.16,1.02s-.26,.6-.44,.89c-.18,.28-.4,.56-.64,.82-.25,.26-.49,.54-.77,.81l-2.25,2.29c.22-.07,.44-.11,.65-.15,.21-.04,.42-.05,.61-.05h2.56c.18,0,.33,.05,.44,.15s.16,.24,.16,.41v1.01h-6.84v-.57c0-.11,.03-.24,.08-.36,.05-.12,.12-.24,.23-.34l3.03-3.01c.26-.26,.47-.5,.68-.74,.2-.24,.37-.46,.5-.69,.13-.23,.24-.46,.31-.7s.1-.48,.1-.75c0-.24-.04-.44-.1-.62-.07-.18-.17-.33-.29-.45-.13-.12-.28-.22-.46-.27-.18-.07-.38-.09-.6-.09-.41,0-.75,.1-1.01,.31-.27,.21-.45,.48-.55,.83-.05,.17-.12,.3-.23,.38s-.23,.11-.39,.11c-.07,0-.14,0-.23-.02l-.89-.16c.07-.47,.2-.89,.4-1.25,.2-.36,.45-.66,.74-.9s.64-.43,1.02-.54c.38-.12,.8-.18,1.23-.18v-.02Z"/>
    <path class="cls-3" d="M227.35,166.9c0,.25-.08,.43-.23,.59-.15,.15-.41,.23-.77,.23h-2.75l-.36,2.07c.45-.09,.86-.14,1.23-.14,.52,0,.99,.08,1.39,.24,.4,.16,.73,.37,1.01,.64,.28,.27,.47,.6,.62,.96,.14,.37,.21,.77,.21,1.19,0,.53-.1,1.01-.28,1.45-.18,.43-.45,.8-.78,1.12-.33,.31-.72,.55-1.18,.72-.46,.17-.95,.26-1.48,.26-.31,0-.61-.03-.89-.09-.28-.07-.54-.15-.79-.26-.25-.1-.47-.23-.68-.37-.21-.14-.4-.28-.56-.44l.52-.72c.11-.15,.26-.24,.44-.24,.11,0,.23,.04,.35,.11,.11,.08,.26,.15,.41,.24,.15,.09,.34,.17,.54,.24,.2,.07,.46,.11,.75,.11,.31,0,.59-.05,.83-.15s.44-.24,.6-.43c.16-.19,.28-.4,.36-.64,.09-.25,.12-.52,.12-.81,0-.54-.16-.96-.47-1.27-.31-.3-.78-.45-1.39-.45-.48,0-.97,.09-1.45,.26l-1.06-.3,.83-4.82h4.92v.72h0Z"/>
    <path class="cls-3" d="M237.07,170.55c-.05,.07-.1,.11-.15,.15-.05,.04-.11,.06-.21,.06s-.17-.03-.26-.08c-.09-.06-.18-.11-.29-.18-.11-.07-.26-.12-.41-.18s-.35-.08-.59-.08c-.3,0-.56,.06-.79,.16-.23,.1-.41,.26-.56,.46-.15,.2-.26,.44-.33,.73-.08,.28-.11,.61-.11,.97s.04,.71,.12,1c.08,.29,.2,.54,.35,.74,.15,.2,.33,.35,.55,.45,.22,.1,.46,.15,.73,.15s.49-.04,.66-.1c.16-.07,.31-.14,.43-.22,.11-.08,.22-.15,.3-.22,.09-.07,.18-.1,.28-.1,.14,0,.24,.06,.31,.16l.49,.61c-.19,.22-.39,.41-.62,.55-.23,.14-.45,.26-.68,.36-.24,.09-.48,.15-.73,.19-.26,.04-.5,.06-.75,.06-.44,0-.85-.09-1.23-.25s-.72-.4-1.01-.71-.51-.69-.68-1.14c-.17-.45-.25-.96-.25-1.54,0-.52,.08-.99,.23-1.44s.37-.82,.66-1.14c.29-.32,.65-.58,1.07-.76,.43-.18,.92-.27,1.47-.27s.99,.09,1.39,.26c.4,.17,.75,.42,1.07,.73l-.45,.61h-.02Z"/>
    <path class="cls-3" d="M238.68,176.1v-7.04h1.04c.22,0,.36,.1,.44,.31l.11,.52c.12-.13,.26-.26,.39-.38,.13-.11,.28-.22,.44-.29,.15-.08,.32-.15,.49-.2,.17-.05,.37-.08,.58-.08,.45,0,.82,.12,1.1,.36,.28,.24,.5,.56,.65,.95,.11-.24,.25-.43,.42-.6,.16-.17,.35-.3,.54-.41,.2-.1,.41-.18,.63-.24,.22-.05,.45-.08,.67-.08,.39,0,.74,.06,1.04,.18,.3,.12,.56,.29,.77,.52,.21,.23,.36,.51,.47,.84,.11,.33,.16,.71,.16,1.13v4.48h-1.7v-4.48c0-.44-.1-.78-.29-1.01-.2-.23-.48-.34-.87-.34-.17,0-.33,.03-.48,.09-.15,.06-.28,.14-.39,.26-.11,.11-.2,.26-.27,.43-.07,.17-.1,.36-.1,.59v4.48h-1.71v-4.48c0-.47-.09-.81-.28-1.03-.19-.22-.47-.32-.85-.32-.25,0-.47,.06-.68,.18-.22,.12-.41,.28-.6,.5v5.15h-1.73Z"/>
    <path class="cls-3" d="M214.75,186.72c0,.73,.1,1.44,.28,2.13,.18,.69,.45,1.34,.8,1.97,.06,.11,.08,.2,.05,.26-.03,.07-.07,.11-.13,.15l-.45,.27c-.26-.4-.47-.78-.66-1.17s-.32-.78-.44-1.17c-.11-.4-.19-.79-.25-1.19s-.08-.81-.08-1.23,.03-.83,.08-1.24c.05-.41,.13-.79,.25-1.19,.11-.4,.26-.78,.44-1.17s.4-.78,.66-1.17l.45,.27c.06,.04,.1,.09,.13,.15,.03,.07,0,.15-.05,.26-.35,.61-.62,1.28-.8,1.97-.18,.69-.28,1.4-.28,2.13v-.03Z"/>
    <path class="cls-3" d="M221.5,189.18v.77h-4.02v-.77h1.58v-4.84c0-.15,0-.31,.02-.48l-1.26,1.07s-.09,.07-.14,.08c-.05,0-.1,0-.13,0-.05,0-.09-.02-.11-.05-.03-.03-.06-.05-.08-.07l-.31-.43,2.22-1.91h.83v6.63h1.42Z"/>
    <path class="cls-3" d="M227.92,186.26c0,.64-.07,1.2-.21,1.68-.14,.47-.33,.87-.57,1.17-.25,.31-.53,.54-.85,.69-.33,.15-.68,.23-1.06,.23s-.73-.08-1.06-.23c-.33-.15-.62-.38-.85-.69-.24-.31-.43-.7-.57-1.17-.14-.47-.21-1.03-.21-1.68s.07-1.2,.21-1.68c.14-.48,.32-.87,.57-1.18,.24-.31,.52-.54,.85-.69,.33-.15,.68-.23,1.06-.23s.73,.08,1.06,.23c.33,.15,.62,.38,.85,.69,.25,.31,.44,.7,.57,1.18,.14,.47,.21,1.03,.21,1.68Zm-1.04,0c0-.56-.05-1.02-.13-1.4-.1-.38-.22-.67-.37-.91-.15-.23-.33-.39-.53-.48-.2-.09-.41-.14-.63-.14s-.43,.05-.63,.14c-.2,.09-.38,.26-.53,.48-.15,.23-.28,.53-.36,.91-.09,.38-.13,.84-.13,1.4s.05,1.02,.13,1.4,.21,.67,.36,.9c.15,.23,.33,.39,.53,.48,.2,.09,.41,.14,.63,.14s.43-.05,.63-.14c.2-.09,.38-.26,.53-.48,.15-.23,.28-.53,.37-.9,.09-.38,.13-.84,.13-1.4Z"/>
    <path class="cls-3" d="M229.61,182.07c.15,.26,.26,.51,.3,.79,.06,.27,.06,.55,.02,.82-.04,.27-.13,.53-.27,.77-.14,.25-.32,.47-.55,.67l-.31-.2c-.06-.04-.09-.09-.08-.13,0-.06,.03-.09,.06-.12,.09-.1,.16-.23,.23-.39,.07-.15,.1-.32,.12-.5,.02-.18,0-.37-.02-.56-.04-.19-.1-.38-.22-.57-.05-.08-.07-.15-.04-.21,.02-.07,.07-.1,.13-.13l.62-.25h0Z"/>
    <path class="cls-3" d="M231.83,182.07c.15,.26,.26,.51,.3,.79,.06,.27,.06,.55,.02,.82-.04,.27-.13,.53-.27,.77-.14,.25-.32,.47-.55,.67l-.31-.2c-.06-.04-.09-.09-.08-.13,0-.06,.03-.09,.06-.12,.09-.1,.16-.23,.23-.39,.07-.15,.1-.32,.12-.5,.02-.18,0-.37-.02-.56-.04-.19-.1-.38-.22-.57-.05-.08-.07-.15-.04-.21,.02-.07,.07-.1,.13-.13l.62-.25h0Z"/>
    <path class="cls-3" d="M234.12,186.72c0-.73-.09-1.44-.28-2.13-.18-.69-.46-1.34-.81-1.97-.06-.11-.08-.2-.05-.26,.03-.07,.08-.11,.13-.15l.45-.27c.26,.4,.47,.78,.66,1.17,.18,.39,.32,.78,.44,1.17,.11,.39,.2,.79,.25,1.19,.05,.4,.08,.81,.08,1.24s-.03,.83-.08,1.23c-.05,.4-.13,.79-.25,1.19s-.26,.78-.44,1.17c-.18,.39-.4,.78-.66,1.17l-.45-.27c-.06-.04-.1-.09-.13-.15-.03-.07,0-.15,.05-.26,.35-.61,.62-1.28,.81-1.97,.19-.69,.28-1.4,.28-2.13v.03Z"/>
  </g>
  <rect class="cls-6" x=".81" width="288" height="192"/>
</svg>