<?xml version="1.0" encoding="UTF-8"?>
<svg id="Capa_1" data-name="Capa 1" xmlns="http://www.w3.org/2000/svg" viewBox="0 0 288 192">
  <defs>
    <style>
      .cls-1 {
        fill: #fff;
      }

      .cls-2 {
        fill: #cecdcd;
      }

      .cls-3 {
        fill: #ff684d;
      }

      .cls-4 {
        fill: #1b1b1b;
      }

      .cls-5 {
        fill: #ff2802;
      }

      .cls-6 {
        fill: #a3a3a3;
      }

      .cls-7 {
        fill: #cc1709;
      }

      .cls-8 {
        fill: #d22e10;
      }

      .cls-9 {
        fill: none;
      }

      .cls-10 {
        fill: #cecece;
      }
    </style>
  </defs>
  <rect class="cls-9" x=".81" width="288" height="192"/>
  <g>
    <path class="cls-4" d="M97.55,105.98h92.44c2.89,0,5.24,2.34,5.24,5.24v24.27c0,2.89-2.34,5.24-5.24,5.24H97.55c-2.89,0-5.24-2.34-5.24-5.24v-24.27c0-2.89,2.34-5.24,5.24-5.24h0Z"/>
    <path class="cls-4" d="M159.43,2.51h-31.31c-2.97,0-5.38,2.53-5.38,5.66v9.35c0,3.12,2.42,5.66,5.38,5.66h31.31c2.97,0,5.38-2.53,5.38-5.66V8.16c0-3.12-2.42-5.66-5.38-5.66h0Zm.32,7.71v5.92c0,1.68-1.3,3.04-2.89,3.04h-26.19c-1.6,0-2.89-1.36-2.89-3.04v-5.92c0-1.68,1.3-3.04,2.89-3.04h26.19c1.6,0,2.89,1.36,2.89,3.04Z"/>
    <path class="cls-5" d="M155.4,1.34h-23.2c-1.39,0-2.52,1.13-2.52,2.52v2.06c0,1.39,1.13,2.52,2.52,2.52h23.2c1.39,0,2.52-1.13,2.52-2.52V3.86c0-1.39-1.13-2.52-2.52-2.52h0Z"/>
    <path class="cls-4" d="M99.12,139.86c-3.75,0-6.8,3.18-6.8,7.1s3.05,7.09,6.8,7.09,6.8-3.18,6.8-7.09-3.05-7.1-6.8-7.1Z"/>
    <path class="cls-2" d="M100.17,146.18h-2.1v1.54h2.1v-1.54Z"/>
    <path class="cls-5" d="M187.94,132.02h3.87c3.6,0,6.52-3.07,6.52-6.85V21.88c0-5.28-4.08-9.56-9.1-9.56H98.47c-5.02,0-9.1,4.27-9.1,9.56V125.18c0,3.79,2.92,6.85,6.52,6.85h4.27c3.63,0,5.57-1.45,6.5,3.94,.56,3.26,3.26,5.64,6.42,5.64h61.66c3.1,0,5.78-2.29,6.39-5.49,1.04-5.41,3.14-4.08,6.81-4.08h0Z"/>
    <path class="cls-8" d="M130.89,12.66V141.94h25.76V12.66h-24.39"/>
    <path class="cls-4" d="M188.43,139.86c-3.75,0-6.8,3.18-6.8,7.09s3.05,7.09,6.8,7.09,6.8-3.18,6.8-7.09-3.05-7.09-6.8-7.09Z"/>
    <path class="cls-2" d="M189.48,146.18h-2.1v1.54h2.1v-1.54Z"/>
    <path class="cls-7" d="M127.91,28.25h-1.88v2.16h1.88v-2.16h0Z"/>
    <path class="cls-7" d="M119.07,28.25h-1.88v2.16h1.88v-2.16h0Z"/>
    <path class="cls-7" d="M170.36,28.25h-1.88v2.16h1.88v-2.16h0Z"/>
    <path class="cls-7" d="M161.5,28.25h-1.88v2.16h1.88v-2.16h0Z"/>
    <path class="cls-5" d="M189.15,12.66H98.39c-.51,0-1.02,.05-1.51,.14h93.79c-.5-.09-1-.14-1.51-.14h0Z"/>
    <path class="cls-3" d="M89.34,37.33c0,1.93,1.55,3.49,3.46,3.49h5c5.64,0,10.22-2.82,10.22-11.78v-5.42c0-2.4,1.23-4.35,2.74-4.35h66.04c1.51,0,2.74,1.95,2.74,4.35v5.42c0,8.95,4.57,11.78,10.22,11.78h5c1.91,0,3.46-1.57,3.46-3.49v-16c-.38-4.33-3.52-7.82-7.55-8.52H96.88c-4.03,.7-7.16,4.2-7.55,8.52v16h0Z"/>
    <path class="cls-6" d="M148.95,52.63h-10.05c-1.63,0-2.97-1.33-2.97-2.97v-17.44c0-1.63,1.33-2.97,2.97-2.97h10.05c1.63,0,2.97,1.33,2.97,2.97v17.44c0,1.63-1.33,2.97-2.97,2.97h0Zm-10.05-22.45c-1.13,0-2.05,.92-2.05,2.05v17.44c0,1.13,.92,2.05,2.05,2.05h10.05c1.13,0,2.05-.92,2.05-2.05v-17.44c0-1.13-.92-2.05-2.05-2.05h-10.05Z"/>
    <path class="cls-6" d="M143.93,.5c-.85,0-1.54,.69-1.54,1.54V7.67c0,.63,.38,1.17,.92,1.41V29.72h1.23V9.08c.54-.23,.92-.78,.92-1.41V2.04c0-.85-.69-1.54-1.54-1.54h.02Z"/>
    <path class="cls-10" d="M136.7,32.54v16.82c0,1.39,1.13,2.51,2.51,2.51h9.43c1.39,0,2.51-1.13,2.51-2.51v-16.82c0-1.39-1.13-2.51-2.51-2.51h-9.43c-1.39,0-2.51,1.13-2.51,2.51h0Z"/>
    <path class="cls-6" d="M147.77,34.03h-7.69v.92h7.69v-.92Z"/>
    <path class="cls-6" d="M147.77,38.33h-7.69v.92h7.69v-.92Z"/>
    <path class="cls-6" d="M147.77,42.64h-7.69v.92h7.69v-.92Z"/>
    <path class="cls-6" d="M147.77,46.94h-7.69v.92h7.69v-.92Z"/>
    <path class="cls-4" d="M232,44.96c10.77,0,19.5-8.73,19.5-19.5s-8.73-19.5-19.5-19.5-19.5,8.73-19.5,19.5,8.73,19.5,19.5,19.5Z"/>
    <path class="cls-1" d="M220.37,29.74c-.15-.16-.23-.34-.23-.55,0-.11,.02-.21,.08-.32l3.5-5.58c.44-.63,.66-1.23,.66-1.81,0-.37-.12-.69-.37-.96s-.55-.4-.89-.4-.66,.14-.92,.41-.39,.61-.39,1.01c0,.2-.08,.36-.24,.5s-.35,.21-.59,.21-.41-.07-.57-.21c-.15-.14-.24-.3-.24-.5,0-.52,.13-1,.39-1.44,.26-.44,.62-.78,1.07-1.04,.45-.25,.94-.38,1.47-.38s1.01,.12,1.46,.37c.45,.25,.81,.59,1.07,1.02,.26,.42,.39,.89,.39,1.41s-.08,.95-.25,1.34c-.17,.39-.4,.81-.68,1.24v-.02l-2.78,4.46h3.01c.24,0,.43,.07,.59,.21s.24,.31,.24,.51-.08,.39-.24,.53c-.15,.14-.35,.21-.59,.21h-4.38c-.24,0-.42-.08-.58-.24h0Z"/>
    <path class="cls-1" d="M229.16,29.69c-.46-.25-.81-.6-1.07-1.04-.26-.44-.39-.91-.39-1.42,0-.2,.07-.37,.22-.52,.15-.15,.33-.22,.55-.22,.24,0,.43,.07,.59,.22s.24,.32,.24,.52c0,.37,.13,.7,.4,.98s.58,.41,.94,.41,.66-.14,.91-.41,.38-.6,.38-.98v-1.46c0-.38-.12-.72-.36-.98-.24-.27-.54-.41-.89-.41-.11,0-.24,.02-.41,.07-.15,.04-.26,.07-.32,.07-.24,0-.45-.1-.61-.28-.09-.11-.13-.25-.13-.4,0-.17,.04-.33,.13-.46l2.14-3.12h-2.08v.32c0,.22-.07,.4-.21,.53s-.3,.2-.5,.2-.37-.07-.52-.2-.24-.3-.26-.53v-1.06c0-.2,.08-.37,.24-.51,.16-.14,.36-.21,.59-.21h4.19c.23,0,.41,.08,.56,.24,.15,.16,.23,.34,.23,.55,0,.11-.03,.24-.1,.35-.18,.27-.58,.81-1.2,1.62-.55,.7-.95,1.24-1.2,1.6,.73,.04,1.31,.33,1.72,.84,.41,.52,.62,1.11,.62,1.8v1.46c0,.51-.13,.98-.39,1.42-.26,.44-.62,.78-1.07,1.04-.45,.25-.94,.38-1.47,.38s-1.03-.13-1.48-.38h0Z"/>
    <path class="cls-1" d="M239.75,28.91c0,.12-.05,.23-.14,.32-.09,.09-.2,.14-.34,.14-.1,0-.19-.02-.27-.07-.08-.04-.14-.1-.18-.17l-1.05-2.03c-.27,.28-.41,.43-.44,.45v1.37c0,.12-.05,.23-.15,.32-.1,.09-.21,.13-.35,.13s-.25-.04-.35-.13c-.1-.09-.15-.2-.15-.32v-6.04c0-.11,.05-.22,.15-.3s.21-.13,.35-.13,.25,.04,.35,.13c.1,.08,.15,.19,.15,.3v3.45l.48-.5c.13-.14,.27-.28,.43-.46,.15-.16,.33-.34,.53-.54,.11-.11,.23-.15,.36-.15s.25,.05,.35,.15c.08,.08,.11,.18,.11,.3s-.04,.22-.11,.31l-.98,1.01,1.2,2.25c.03,.06,.05,.13,.05,.2h0Z"/>
    <path class="cls-1" d="M243.65,30.83c-.15,.25-.37,.45-.63,.59-.26,.15-.55,.21-.86,.21-.49,0-.89-.14-1.21-.41-.32-.27-.48-.63-.48-1.08,0-.14,.05-.24,.15-.32,.1-.08,.22-.11,.36-.11s.24,.04,.34,.11c.1,.08,.15,.19,.15,.32,0,.2,.07,.35,.19,.46,.12,.11,.29,.15,.51,.15,.2,0,.37-.07,.51-.21,.14-.15,.21-.32,.21-.53v-.96c-.26,.22-.58,.33-.94,.33-.27,0-.52-.07-.76-.21-.24-.14-.43-.33-.57-.58-.14-.24-.2-.5-.18-.76v-1.54c0-.3,.07-.57,.2-.81,.13-.24,.32-.44,.56-.58,.24-.14,.51-.21,.83-.21,.22,0,.41,.03,.56,.09,.15,.07,.28,.16,.38,.31,0-.13,.04-.23,.13-.29s.2-.11,.33-.11,.24,.03,.33,.11c.1,.07,.14,.16,.14,.28v4.93c0,.3-.08,.57-.24,.82h0Zm-.96-2.54c.15-.12,.22-.28,.22-.48v-1.56c0-.22-.08-.39-.23-.51-.14-.12-.31-.19-.5-.19-.2,0-.37,.07-.53,.2-.15,.13-.23,.31-.24,.55v1.54c0,.2,.07,.37,.21,.48,.14,.11,.32,.17,.53,.17s.38-.06,.53-.18h0Z"/>
    <path class="cls-4" d="M232,75.67c7.08,0,12.81-5.74,12.81-12.81s-5.74-12.81-12.81-12.81-12.81,5.74-12.81,12.81,5.74,12.81,12.81,12.81Z"/>
    <path class="cls-1" d="M227.09,61.05c.28,.15,.49,.35,.65,.62,.16,.27,.24,.57,.24,.89v1.36c0,.31-.08,.6-.24,.87-.16,.27-.37,.48-.65,.63-.28,.15-.58,.24-.9,.24s-.63-.07-.9-.21c-.27-.14-.49-.33-.64-.59-.16-.25-.24-.53-.24-.85,0-.12,.05-.23,.14-.32,.09-.09,.21-.13,.35-.13s.26,.04,.36,.13c.1,.08,.14,.2,.14,.33,0,.22,.08,.4,.24,.55,.15,.14,.34,.21,.57,.21s.41-.08,.57-.25c.15-.17,.24-.37,.24-.59v-1.36c0-.24-.08-.44-.24-.6-.15-.17-.34-.25-.57-.25-.2,0-.36,.06-.5,.16s-.23,.27-.28,.47c-.03,.1-.09,.18-.18,.24-.08,.07-.19,.1-.3,.1-.15,0-.26-.04-.36-.13-.1-.09-.15-.2-.15-.32v-3.03c0-.12,.05-.23,.15-.31,.1-.08,.22-.13,.36-.13h2.36c.14,0,.25,.04,.35,.13,.1,.08,.15,.19,.15,.31s-.05,.23-.15,.32c-.1,.09-.21,.13-.35,.13h-1.97v1.51c.15-.21,.44-.33,.86-.33,.33,0,.63,.07,.91,.22l-.02-.02Z"/>
    <path class="cls-1" d="M229.93,65.42c-.28-.15-.5-.37-.65-.63s-.24-.56-.24-.88v-3.47c0-.31,.08-.6,.24-.87,.15-.27,.37-.48,.65-.63s.58-.24,.9-.24,.63,.08,.89,.24c.28,.15,.49,.37,.65,.63,.16,.27,.24,.55,.24,.87v3.47c0,.32-.08,.61-.24,.88-.16,.27-.38,.48-.65,.63-.28,.15-.57,.24-.89,.24s-.63-.08-.9-.24Zm.33-5.58c-.15,.17-.24,.37-.24,.6v3.47c0,.24,.08,.43,.24,.6,.15,.16,.34,.25,.57,.25s.41-.08,.57-.25c.15-.16,.24-.37,.24-.6v-3.47c0-.24-.08-.44-.24-.6-.15-.17-.34-.25-.57-.25s-.41,.08-.57,.25Z"/>
    <path class="cls-1" d="M235.09,65.51c-.15-.08-.27-.2-.36-.35s-.13-.31-.13-.49v-3.63c0-.09,.03-.16,.11-.22,.07-.06,.15-.09,.24-.09s.18,.03,.24,.09,.11,.13,.11,.22v3.63c0,.09,.02,.17,.08,.24,.05,.07,.12,.1,.2,.1s.14-.03,.2-.1c.05-.07,.07-.15,.07-.25s.03-.17,.11-.23c.07-.05,.15-.08,.24-.08s.18,.03,.25,.09c.07,.06,.11,.14,.11,.23,0,.18-.04,.34-.13,.49s-.2,.26-.35,.35c-.15,.09-.32,.13-.5,.13s-.34-.04-.5-.13h0Z"/>
    <path class="cls-1" d="M238.62,62.35c.19,0,.37,.05,.54,.14,.17,.09,.3,.22,.41,.38,.1,.16,.14,.35,.12,.55v1.12c0,.22-.05,.41-.15,.59-.11,.17-.24,.3-.4,.39s-.33,.14-.5,.14c-.32,0-.55-.1-.69-.3-.06,.2-.17,.29-.34,.29-.09,0-.17-.03-.24-.09-.07-.06-.11-.14-.11-.23v-4.29c0-.08,.03-.15,.11-.21,.07-.06,.15-.09,.24-.09s.19,.03,.25,.09,.11,.13,.11,.21v1.58c.19-.19,.41-.28,.68-.28h0Zm.22,.73c-.1-.08-.23-.12-.38-.12s-.27,.04-.37,.13c-.1,.09-.15,.2-.15,.35v1.1c0,.15,.05,.26,.15,.35,.1,.08,.22,.13,.37,.13s.28-.04,.38-.12c.11-.08,.15-.2,.15-.34v-1.12c0-.15-.05-.26-.15-.34h0Z"/>
    <path class="cls-4" d="M89.23,172.79h1.92v-5.52c0-.22,0-.44,.02-.68l-1.36,1.14c-.05,.05-.12,.08-.17,.1-.05,.02-.12,.03-.17,.03-.09,0-.16-.02-.23-.05-.07-.04-.13-.08-.16-.13l-.51-.7,2.89-2.45h1.33v8.27h1.7v1.21h-5.24v-1.21Z"/>
    <path class="cls-4" d="M101.54,165.22c0,.23-.07,.41-.22,.56-.14,.14-.39,.22-.73,.22h-2.61l-.34,1.97c.42-.09,.82-.14,1.17-.14,.5,0,.94,.07,1.32,.23,.38,.15,.69,.35,.96,.61,.26,.26,.45,.57,.59,.92,.13,.35,.2,.73,.2,1.14,0,.5-.09,.96-.26,1.38-.18,.41-.42,.77-.74,1.06s-.69,.52-1.12,.69c-.43,.16-.9,.24-1.41,.24-.3,0-.58-.03-.85-.09-.27-.06-.51-.14-.75-.24s-.45-.22-.65-.35c-.2-.14-.38-.27-.53-.42l.5-.69c.11-.14,.24-.23,.41-.23,.11,0,.22,.04,.33,.11,.11,.07,.24,.14,.39,.23,.14,.08,.32,.16,.51,.23,.19,.06,.43,.11,.71,.11,.3,0,.56-.05,.78-.14,.23-.1,.41-.23,.57-.41s.26-.38,.34-.61c.07-.23,.12-.5,.12-.78,0-.51-.15-.92-.45-1.21-.3-.29-.74-.43-1.32-.43-.46,0-.92,.08-1.38,.25l-1.01-.29,.78-4.6h4.67v.69h0Z"/>
    <path class="cls-4" d="M106.45,174.1c-.49,0-.94-.06-1.33-.2-.41-.14-.75-.32-1.04-.56-.29-.24-.51-.53-.67-.87-.15-.34-.23-.72-.23-1.14,0-.56,.14-1.03,.41-1.42,.27-.39,.7-.68,1.28-.87-.46-.19-.81-.47-1.04-.82s-.34-.78-.34-1.28c0-.36,.07-.69,.22-1,.14-.31,.35-.58,.61-.81,.26-.23,.58-.41,.94-.53s.77-.19,1.2-.19,.84,.06,1.2,.19,.68,.31,.94,.53c.26,.23,.47,.5,.61,.81,.14,.32,.22,.64,.22,1,0,.5-.12,.92-.34,1.28-.23,.35-.58,.62-1.04,.82,.58,.19,1.01,.48,1.28,.87,.27,.39,.41,.86,.41,1.42,0,.41-.08,.8-.23,1.14-.15,.33-.38,.63-.67,.87-.29,.24-.63,.42-1.04,.56-.41,.14-.85,.2-1.33,.2h-.02Zm0-1.26c.26,0,.5-.04,.7-.12,.21-.08,.37-.18,.5-.32s.24-.3,.31-.49c.06-.19,.11-.39,.11-.6,0-.52-.14-.91-.43-1.18-.29-.26-.69-.4-1.19-.4s-.9,.14-1.19,.4c-.29,.27-.43,.66-.43,1.18,0,.22,.04,.42,.11,.6,.07,.18,.17,.35,.31,.49s.31,.24,.5,.32c.2,.07,.43,.12,.7,.12Zm0-4.37c.26,0,.49-.05,.66-.13,.17-.08,.32-.19,.43-.33,.11-.14,.19-.3,.23-.47,.05-.18,.07-.36,.07-.55s-.03-.35-.08-.51c-.05-.16-.14-.31-.25-.43s-.26-.23-.43-.3c-.17-.07-.38-.11-.62-.11s-.45,.04-.62,.11c-.17,.07-.32,.17-.43,.3-.12,.13-.2,.27-.25,.43-.05,.16-.08,.33-.08,.51,0,.19,.03,.37,.07,.55,.05,.18,.13,.33,.23,.47,.11,.14,.25,.24,.43,.33,.18,.09,.4,.13,.66,.13h-.02Z"/>
    <path class="cls-4" d="M118.36,168.7c-.05,.06-.1,.11-.14,.14-.05,.04-.11,.05-.2,.05s-.16-.03-.24-.07-.17-.11-.28-.17c-.11-.06-.23-.12-.39-.17-.15-.05-.33-.07-.56-.07-.28,0-.53,.05-.75,.15s-.39,.25-.53,.44c-.14,.19-.25,.42-.32,.69s-.11,.59-.11,.93,.04,.68,.12,.96c.07,.28,.19,.51,.33,.7,.14,.19,.32,.33,.52,.43s.43,.14,.69,.14,.47-.04,.62-.1c.15-.06,.3-.14,.41-.21s.21-.14,.29-.21c.08-.06,.17-.1,.27-.1,.14,0,.23,.05,.3,.15l.47,.59c-.18,.21-.37,.39-.59,.52-.22,.14-.42,.25-.65,.34-.23,.08-.46,.14-.69,.18-.23,.04-.48,.05-.71,.05-.41,0-.8-.08-1.17-.23-.37-.15-.69-.38-.96-.68s-.49-.66-.65-1.09c-.16-.43-.24-.92-.24-1.47,0-.5,.07-.95,.22-1.37s.35-.78,.62-1.09c.27-.31,.61-.55,1.02-.72s.87-.26,1.4-.26,.94,.08,1.32,.24c.38,.16,.71,.4,1.02,.69l-.42,.59h0Z"/>
    <path class="cls-4" d="M119.89,174v-6.72h.99c.21,0,.34,.1,.41,.3l.11,.5c.12-.13,.24-.25,.37-.36,.13-.11,.26-.21,.41-.28,.15-.07,.31-.14,.47-.19,.17-.05,.35-.07,.55-.07,.42,0,.78,.12,1.05,.34,.27,.23,.48,.53,.61,.91,.11-.23,.23-.41,.4-.57,.15-.16,.33-.29,.51-.39,.19-.1,.39-.17,.6-.23,.22-.05,.42-.07,.64-.07,.37,0,.7,.05,.99,.17,.29,.12,.53,.28,.73,.5s.34,.49,.45,.8c.1,.32,.15,.68,.15,1.08v4.27h-1.61v-4.27c0-.42-.09-.75-.28-.96-.19-.22-.46-.32-.83-.32-.16,0-.32,.03-.46,.08s-.26,.14-.37,.24c-.11,.11-.19,.24-.25,.41-.06,.16-.09,.34-.09,.56v4.27h-1.62v-4.27c0-.45-.09-.78-.27-.98s-.45-.31-.8-.31c-.23,0-.45,.05-.65,.17-.2,.12-.39,.27-.57,.48v4.91h-1.64Z"/>
    <path class="cls-4" d="M133.83,170.91c0,.69,.09,1.37,.26,2.03,.17,.66,.42,1.28,.76,1.88,.05,.11,.07,.19,.05,.25-.03,.06-.07,.11-.13,.14l-.42,.26c-.24-.38-.45-.75-.62-1.12-.17-.37-.31-.75-.41-1.12-.11-.38-.18-.76-.23-1.14-.05-.38-.07-.78-.07-1.17s.03-.79,.07-1.18c.05-.38,.13-.76,.23-1.14,.11-.38,.24-.75,.41-1.12,.17-.37,.38-.75,.62-1.12l.42,.26c.05,.04,.1,.08,.13,.14,.03,.05,0,.14-.05,.25-.33,.59-.59,1.22-.76,1.88-.17,.66-.26,1.33-.26,2.03v-.03Z"/>
    <path class="cls-4" d="M137.61,169.57c-.05,.07-.11,.14-.16,.21-.05,.06-.11,.14-.15,.2,.15-.1,.33-.18,.52-.23,.19-.05,.4-.08,.62-.08,.28,0,.54,.05,.79,.14,.25,.09,.48,.23,.67,.41s.34,.4,.45,.66c.11,.26,.17,.56,.17,.9s-.06,.63-.18,.91c-.12,.28-.28,.53-.5,.74-.22,.21-.47,.37-.77,.49-.3,.12-.63,.18-.99,.18s-.69-.05-.97-.17c-.29-.12-.54-.28-.74-.49-.21-.21-.36-.47-.48-.77-.11-.3-.17-.63-.17-1,0-.32,.07-.65,.21-.99,.14-.35,.35-.72,.65-1.12l1.76-2.36c.05-.06,.12-.12,.21-.16,.09-.05,.19-.06,.31-.06h.86l-2.09,2.62h0Zm.45,3.7c.23,0,.43-.04,.61-.11s.34-.17,.47-.3c.14-.13,.23-.28,.31-.46,.07-.18,.11-.37,.11-.58,0-.23-.04-.42-.11-.6-.07-.18-.17-.33-.3-.45-.13-.12-.28-.22-.45-.29-.18-.06-.37-.1-.59-.1s-.43,.04-.6,.12c-.18,.07-.33,.18-.46,.31s-.23,.28-.3,.45c-.07,.17-.1,.35-.1,.54,0,.22,.03,.41,.09,.6s.15,.33,.27,.46c.12,.13,.27,.23,.44,.3s.38,.11,.6,.11h0Z"/>
    <path class="cls-4" d="M145.75,173.09c.11,0,.19,.03,.24,.09,.06,.06,.09,.14,.09,.23v.58h-4.73v-.33c0-.06,0-.14,.04-.21s.07-.14,.14-.2l2.23-2.24c.19-.19,.35-.37,.5-.54,.15-.17,.28-.34,.38-.51,.1-.17,.19-.35,.24-.52,.05-.18,.09-.37,.09-.57s-.04-.37-.09-.51c-.06-.15-.14-.27-.25-.37s-.23-.17-.38-.23c-.14-.05-.31-.07-.48-.07s-.32,.03-.47,.07c-.14,.05-.27,.12-.38,.21s-.21,.19-.28,.32c-.07,.12-.13,.25-.16,.4-.05,.13-.11,.21-.17,.25-.07,.05-.17,.05-.31,.03l-.5-.09c.05-.32,.14-.61,.27-.87s.31-.46,.5-.62c.2-.17,.43-.3,.7-.38,.27-.08,.55-.13,.86-.13s.6,.05,.85,.14c.26,.09,.49,.22,.68,.39s.34,.38,.45,.62,.16,.52,.16,.83c0,.26-.04,.5-.12,.73-.07,.23-.18,.44-.32,.64-.14,.21-.29,.4-.46,.6-.17,.2-.36,.39-.56,.59l-1.79,1.83c.14-.04,.28-.06,.41-.09,.14-.03,.27-.04,.4-.04h2.23l-.03-.02Z"/>
    <path class="cls-4" d="M147.93,166.48c.14,.24,.24,.49,.29,.76,.05,.26,.05,.52,.02,.78-.04,.26-.13,.5-.25,.74-.14,.23-.31,.45-.52,.64l-.3-.19c-.05-.04-.08-.08-.07-.13,0-.05,.03-.09,.05-.12,.08-.1,.15-.22,.22-.37,.06-.14,.1-.31,.12-.48,.02-.17,0-.35-.02-.53s-.1-.36-.21-.54c-.05-.07-.06-.14-.04-.2,.02-.06,.06-.1,.13-.13l.59-.23h0Zm1.52,0c.14,.24,.24,.49,.29,.76,.05,.26,.05,.52,.02,.78-.04,.26-.13,.5-.25,.74-.14,.23-.31,.45-.52,.64l-.3-.19c-.05-.04-.08-.08-.07-.13,0-.05,.03-.09,.05-.12,.08-.1,.15-.22,.22-.37,.06-.14,.1-.31,.12-.48s0-.35-.02-.53c-.03-.18-.1-.36-.21-.54-.05-.07-.06-.14-.04-.2,.02-.06,.06-.1,.13-.13l.59-.23h0Z"/>
    <path class="cls-4" d="M151.63,170.91c0-.69-.09-1.37-.26-2.03-.17-.66-.43-1.28-.77-1.88-.05-.11-.07-.19-.05-.25,.03-.06,.07-.11,.13-.14l.42-.26c.24,.38,.45,.75,.62,1.12,.17,.37,.31,.75,.41,1.12,.11,.38,.19,.75,.23,1.14,.05,.38,.07,.78,.07,1.18s-.03,.79-.07,1.17c-.05,.38-.13,.76-.23,1.14-.11,.38-.24,.75-.41,1.12-.17,.37-.38,.75-.62,1.12l-.42-.26c-.05-.04-.1-.08-.13-.14-.03-.06,0-.14,.05-.25,.33-.59,.59-1.22,.77-1.88,.18-.66,.26-1.33,.26-2.03v.03Z"/>
    <path class="cls-4" d="M158,164.27v9.73h-1.61v-9.73h1.61Z"/>
    <path class="cls-4" d="M161.79,165.32c0,.14-.03,.27-.08,.4s-.14,.23-.23,.32c-.09,.09-.21,.16-.33,.22s-.26,.08-.41,.08-.27-.03-.4-.08-.23-.13-.32-.22c-.09-.09-.16-.2-.22-.32s-.08-.25-.08-.4,.03-.28,.08-.41,.13-.23,.22-.32c.09-.09,.2-.16,.32-.22s.25-.08,.4-.08,.28,.03,.41,.08,.23,.13,.33,.22c.09,.09,.17,.2,.23,.32s.08,.26,.08,.41Zm-.24,1.96v6.72h-1.61v-6.72h1.61Z"/>
    <path class="cls-4" d="M163.38,174v-6.72h.99c.21,0,.34,.1,.41,.3l.11,.53c.14-.14,.28-.27,.43-.38,.15-.11,.31-.21,.48-.3,.17-.09,.35-.14,.54-.19s.41-.06,.63-.06c.37,0,.69,.06,.97,.19s.52,.3,.71,.52,.33,.5,.43,.8c.1,.32,.14,.66,.14,1.03v4.27h-1.61v-4.27c0-.41-.1-.73-.29-.96s-.48-.33-.86-.33c-.28,0-.54,.06-.78,.19-.24,.13-.48,.3-.69,.51v4.86h-1.62Z"/>
    <path class="cls-4" d="M173.59,167.17c.42,0,.81,.07,1.17,.2,.35,.14,.66,.33,.92,.6s.46,.58,.6,.96c.14,.38,.22,.81,.22,1.29,0,.13,0,.23-.02,.31-.02,.08-.03,.14-.06,.19-.04,.05-.06,.08-.12,.1-.05,.02-.11,.03-.18,.03h-4.15c.05,.69,.23,1.2,.56,1.51,.32,.32,.75,.49,1.28,.49,.26,0,.49-.03,.68-.09,.19-.06,.35-.13,.5-.2,.14-.07,.26-.14,.37-.21,.11-.06,.21-.09,.31-.09,.06,0,.13,0,.17,.04s.09,.06,.13,.11l.47,.59c-.18,.21-.38,.39-.6,.52-.23,.14-.45,.25-.69,.34-.24,.08-.49,.14-.74,.18-.25,.04-.5,.05-.73,.05-.47,0-.9-.08-1.31-.23-.41-.15-.75-.39-1.05-.69-.3-.31-.53-.68-.7-1.13-.17-.45-.25-.96-.25-1.55,0-.46,.07-.89,.23-1.29,.14-.41,.36-.76,.64-1.06,.28-.3,.61-.53,1.01-.71,.4-.17,.85-.26,1.35-.26h0Zm.04,1.17c-.47,0-.84,.14-1.11,.4-.26,.27-.43,.64-.51,1.14h3.04c0-.21-.03-.41-.08-.6-.05-.19-.14-.35-.26-.49-.12-.14-.26-.25-.44-.33-.18-.08-.39-.12-.63-.12Z"/>
    <path class="cls-4" d="M183.08,174h-.73c-.15,0-.27-.03-.36-.07s-.15-.14-.2-.28l-.14-.48c-.17,.15-.33,.29-.5,.41-.16,.12-.33,.22-.5,.29-.17,.08-.36,.14-.56,.18-.2,.05-.41,.06-.66,.06-.29,0-.55-.04-.78-.12-.24-.07-.44-.19-.62-.34-.18-.15-.31-.34-.41-.57s-.14-.5-.14-.79c0-.25,.06-.5,.2-.75,.14-.24,.35-.47,.67-.67,.31-.2,.72-.36,1.24-.5s1.15-.2,1.92-.2v-.4c0-.45-.1-.79-.29-1.01s-.47-.32-.83-.32c-.26,0-.48,.03-.66,.09-.17,.06-.32,.13-.45,.21-.13,.07-.25,.14-.36,.21-.11,.06-.23,.09-.36,.09-.11,0-.21-.03-.28-.08-.08-.05-.14-.13-.19-.21l-.3-.51c.78-.7,1.7-1.06,2.8-1.06,.4,0,.74,.06,1.06,.19,.31,.13,.57,.31,.78,.54,.22,.23,.38,.5,.49,.82,.11,.32,.17,.67,.17,1.05v4.25l.02-.02Zm-3.15-1.01c.16,0,.32-.02,.46-.05,.14-.03,.27-.07,.4-.14,.13-.06,.24-.14,.36-.23,.12-.09,.23-.19,.35-.32v-1.13c-.47,0-.87,.03-1.18,.09-.32,.06-.57,.14-.77,.23-.2,.09-.32,.2-.41,.32-.08,.13-.12,.26-.12,.41,0,.29,.08,.49,.25,.61s.39,.19,.66,.19h0Z"/>
    <path class="cls-4" d="M186.4,164.27v9.73h-1.61v-9.73h1.61Z"/>
    <path class="cls-4" d="M191,167.17c.42,0,.81,.07,1.17,.2,.35,.14,.66,.33,.92,.6,.26,.26,.46,.58,.6,.96,.14,.38,.22,.81,.22,1.29,0,.13,0,.23-.02,.31,0,.08-.03,.14-.06,.19-.03,.05-.06,.08-.12,.1-.05,.02-.11,.03-.18,.03h-4.15c.05,.69,.23,1.2,.56,1.51,.32,.32,.75,.49,1.28,.49,.26,0,.49-.03,.68-.09,.19-.06,.35-.13,.5-.2s.27-.14,.37-.21c.11-.06,.21-.09,.31-.09,.06,0,.13,0,.17,.04,.05,.03,.09,.06,.13,.11l.47,.59c-.18,.21-.38,.39-.6,.52s-.45,.25-.69,.34c-.24,.08-.49,.14-.74,.18-.25,.04-.5,.05-.73,.05-.47,0-.9-.08-1.3-.23-.41-.15-.75-.39-1.05-.69-.3-.31-.53-.68-.7-1.13-.17-.45-.25-.96-.25-1.55,0-.46,.07-.89,.23-1.29,.15-.41,.36-.76,.64-1.06,.28-.3,.61-.53,1.02-.71,.4-.17,.85-.26,1.35-.26h0Zm.04,1.17c-.47,0-.84,.14-1.11,.4-.27,.26-.43,.64-.51,1.14h3.04c0-.21-.03-.41-.08-.6-.05-.19-.14-.35-.26-.49-.12-.14-.27-.25-.44-.33-.18-.08-.39-.12-.63-.12Z"/>
    <path class="cls-4" d="M199.2,168.59c-.05,.07-.09,.12-.14,.14-.05,.03-.11,.05-.18,.05-.08,0-.16-.02-.25-.06s-.19-.09-.31-.14c-.12-.05-.25-.11-.41-.14-.15-.05-.32-.06-.53-.06-.32,0-.57,.07-.75,.21-.18,.14-.28,.32-.28,.53,0,.14,.05,.26,.14,.36,.09,.1,.22,.19,.37,.26s.33,.14,.52,.2c.2,.06,.4,.13,.6,.19,.21,.07,.41,.15,.6,.24,.2,.09,.37,.2,.52,.34s.28,.31,.37,.5c.09,.19,.14,.42,.14,.69,0,.32-.06,.62-.18,.89-.12,.27-.29,.5-.51,.7s-.5,.35-.84,.47c-.33,.11-.71,.17-1.15,.17-.23,0-.46-.02-.68-.06-.23-.05-.43-.1-.63-.17-.21-.07-.39-.16-.56-.26s-.32-.21-.45-.32l.37-.61c.05-.07,.11-.13,.17-.17,.06-.04,.14-.06,.25-.06s.2,.03,.29,.08c.09,.05,.19,.12,.31,.18,.12,.06,.25,.13,.41,.18s.36,.08,.6,.08c.19,0,.36-.03,.5-.07s.25-.11,.34-.18,.15-.16,.2-.26,.06-.2,.06-.31c0-.15-.05-.29-.14-.39-.09-.1-.22-.19-.37-.26-.15-.07-.33-.14-.53-.2-.2-.06-.41-.13-.6-.19-.21-.07-.41-.15-.61-.24-.2-.09-.38-.22-.53-.36s-.28-.32-.37-.53c-.09-.21-.14-.46-.14-.76,0-.27,.05-.54,.16-.78,.11-.25,.27-.47,.48-.65,.21-.19,.48-.33,.79-.44,.32-.11,.69-.16,1.1-.16,.46,0,.88,.07,1.26,.23s.69,.35,.95,.6l-.37,.59-.02-.02Z"/>
    <g>
      <path class="cls-4" d="M86.94,185.03c0,.93,.12,1.83,.36,2.7,.24,.87,.58,1.71,1.03,2.5,.03,.05,.04,.09,.05,.12s.01,.07,.01,.1c0,.06-.02,.11-.05,.15-.03,.04-.07,.07-.12,.1l-.51,.31c-.33-.5-.6-.99-.83-1.48-.23-.49-.41-.98-.55-1.48s-.24-.99-.31-1.49c-.07-.5-.1-1.02-.1-1.55s.03-1.04,.1-1.54c.07-.5,.17-1,.31-1.49s.33-.98,.55-1.47c.23-.49,.5-.99,.83-1.49l.51,.32s.09,.07,.12,.1c.03,.04,.05,.09,.05,.15,0,.07-.02,.14-.07,.22-.46,.79-.8,1.62-1.04,2.5s-.35,1.78-.35,2.71Z"/>
      <path class="cls-4" d="M91.2,179.54v9.58h-1.16v-9.58h1.16Z"/>
      <path class="cls-4" d="M98.08,189.13h-.51c-.11,0-.2-.02-.27-.05-.07-.03-.12-.11-.14-.22l-.13-.61c-.17,.16-.34,.3-.51,.42-.16,.12-.34,.23-.52,.31s-.38,.15-.58,.19c-.21,.04-.43,.07-.69,.07s-.5-.04-.72-.11c-.22-.07-.42-.18-.58-.32-.17-.14-.3-.33-.39-.55-.1-.22-.15-.48-.15-.78,0-.26,.07-.51,.21-.75,.14-.24,.37-.46,.69-.64,.32-.19,.74-.34,1.25-.46s1.15-.18,1.89-.18v-.52c0-.52-.11-.9-.33-1.17s-.54-.4-.97-.4c-.28,0-.52,.04-.71,.11-.19,.07-.36,.15-.5,.24-.14,.09-.26,.17-.36,.24-.1,.07-.2,.11-.3,.11-.08,0-.15-.02-.2-.06-.06-.04-.11-.09-.14-.15l-.21-.37c.36-.35,.76-.61,1.18-.79,.42-.17,.89-.26,1.4-.26,.37,0,.7,.06,.98,.18,.29,.12,.53,.29,.72,.51,.2,.22,.34,.48,.44,.79s.15,.65,.15,1.02v4.22Zm-3.01-.71c.2,0,.39-.02,.56-.06,.17-.04,.33-.1,.48-.18,.15-.08,.29-.17,.43-.28,.14-.11,.27-.23,.4-.37v-1.36c-.53,0-.99,.03-1.36,.1-.37,.07-.68,.16-.91,.26-.23,.11-.4,.24-.51,.39-.11,.15-.16,.31-.16,.5s.03,.33,.08,.45c.06,.13,.13,.23,.23,.31,.1,.08,.21,.14,.34,.18,.13,.04,.27,.06,.42,.06Z"/>
      <path class="cls-4" d="M99.84,189.13v-6.59h.66c.13,0,.21,.02,.26,.07,.05,.05,.08,.13,.1,.25l.08,1.03c.23-.46,.5-.82,.84-1.08,.33-.26,.72-.39,1.17-.39,.18,0,.35,.02,.49,.06s.28,.1,.41,.17l-.15,.87c-.03,.11-.1,.16-.2,.16-.06,0-.15-.02-.28-.06-.13-.04-.3-.06-.53-.06-.4,0-.74,.12-1.01,.35-.27,.23-.5,.57-.68,1.02v4.2h-1.16Z"/>
      <path class="cls-4" d="M107.3,182.42c.29,0,.55,.03,.8,.09,.25,.06,.48,.16,.68,.28h1.79v.43c0,.14-.09,.23-.27,.27l-.75,.1c.15,.28,.22,.6,.22,.94,0,.32-.06,.61-.19,.87-.12,.26-.29,.49-.51,.67-.22,.19-.48,.33-.78,.43-.3,.1-.63,.15-.99,.15-.31,0-.6-.04-.87-.11-.14,.09-.24,.19-.32,.29s-.11,.2-.11,.3c0,.16,.06,.28,.19,.37,.13,.08,.29,.14,.5,.18,.21,.04,.44,.05,.71,.05h.81c.28,0,.55,.02,.81,.07,.26,.05,.5,.13,.71,.24,.21,.11,.38,.26,.5,.45s.19,.44,.19,.75c0,.29-.07,.56-.21,.83-.14,.27-.34,.51-.61,.71s-.59,.38-.97,.5c-.38,.12-.81,.19-1.29,.19s-.9-.05-1.27-.14c-.36-.1-.66-.22-.9-.38-.24-.16-.42-.35-.54-.56-.12-.21-.18-.43-.18-.66,0-.33,.1-.6,.31-.83,.21-.23,.49-.41,.85-.54-.19-.09-.34-.2-.45-.35s-.17-.34-.17-.58c0-.09,.02-.19,.05-.3,.03-.1,.09-.2,.16-.3,.07-.1,.16-.19,.26-.29,.1-.09,.23-.17,.36-.24-.33-.18-.58-.42-.76-.73-.18-.3-.28-.65-.28-1.06,0-.32,.06-.61,.19-.88,.12-.26,.3-.49,.52-.67,.22-.18,.48-.33,.79-.43,.31-.1,.64-.15,1.01-.15Zm2.06,7.04c0-.17-.05-.3-.14-.4-.09-.1-.21-.18-.37-.24-.16-.06-.34-.1-.54-.12s-.42-.04-.64-.04h-.69c-.23,0-.46-.03-.67-.09-.25,.12-.45,.26-.6,.43s-.23,.37-.23,.61c0,.15,.04,.29,.11,.41s.19,.24,.35,.33,.35,.17,.59,.22c.24,.05,.52,.08,.84,.08s.59-.03,.84-.09,.46-.14,.63-.25c.17-.11,.3-.23,.39-.38,.09-.15,.14-.31,.14-.48Zm-2.06-3.56c.23,0,.44-.03,.62-.1s.33-.16,.45-.27c.12-.12,.21-.26,.27-.42s.09-.34,.09-.54c0-.4-.12-.72-.37-.96-.25-.24-.6-.36-1.07-.36s-.82,.12-1.06,.36c-.25,.24-.37,.56-.37,.96,0,.2,.03,.37,.09,.54,.06,.16,.15,.3,.28,.42,.12,.12,.27,.21,.45,.27,.18,.07,.38,.1,.61,.1Z"/>
      <path class="cls-4" d="M114.4,182.43c.48,0,.92,.08,1.3,.24,.39,.16,.72,.39,.99,.68s.48,.65,.62,1.07c.15,.42,.22,.89,.22,1.4s-.07,.99-.22,1.41c-.15,.42-.35,.77-.62,1.07-.27,.3-.6,.52-.99,.68-.39,.16-.82,.24-1.3,.24s-.92-.08-1.3-.24c-.39-.16-.72-.38-.99-.68-.27-.29-.48-.65-.63-1.07s-.22-.88-.22-1.41,.07-.98,.22-1.4,.36-.78,.63-1.07c.27-.29,.6-.52,.99-.68,.39-.16,.82-.24,1.3-.24Zm0,5.88c.65,0,1.14-.22,1.46-.65,.32-.44,.48-1.04,.48-1.82s-.16-1.4-.48-1.84c-.32-.44-.81-.66-1.46-.66-.33,0-.62,.06-.86,.17s-.45,.28-.61,.49c-.16,.21-.28,.47-.36,.78-.08,.31-.12,.66-.12,1.05s.04,.74,.12,1.05c.08,.31,.2,.57,.36,.78,.16,.21,.37,.37,.61,.48,.24,.11,.53,.17,.86,.17Z"/>
      <path class="cls-4" d="M124.76,181.54v2.78h2.65v.88h-2.65v2.8h-.95v-2.8h-2.63v-.88h2.63v-2.78h.95Z"/>
      <path class="cls-4" d="M136.38,189.13h-.51c-.11,0-.2-.02-.27-.05-.07-.03-.12-.11-.14-.22l-.13-.61c-.17,.16-.34,.3-.51,.42-.16,.12-.34,.23-.52,.31s-.38,.15-.58,.19c-.21,.04-.43,.07-.69,.07s-.5-.04-.72-.11c-.22-.07-.42-.18-.58-.32-.17-.14-.3-.33-.39-.55-.1-.22-.15-.48-.15-.78,0-.26,.07-.51,.21-.75,.14-.24,.37-.46,.69-.64,.32-.19,.74-.34,1.25-.46s1.15-.18,1.89-.18v-.52c0-.52-.11-.9-.33-1.17s-.54-.4-.97-.4c-.28,0-.52,.04-.71,.11-.19,.07-.36,.15-.5,.24-.14,.09-.26,.17-.36,.24-.1,.07-.2,.11-.3,.11-.08,0-.15-.02-.2-.06-.06-.04-.11-.09-.14-.15l-.21-.37c.36-.35,.76-.61,1.18-.79,.42-.17,.89-.26,1.4-.26,.37,0,.7,.06,.98,.18,.29,.12,.53,.29,.72,.51,.2,.22,.34,.48,.44,.79s.15,.65,.15,1.02v4.22Zm-3.01-.71c.2,0,.39-.02,.56-.06,.17-.04,.33-.1,.48-.18,.15-.08,.29-.17,.43-.28,.14-.11,.27-.23,.4-.37v-1.36c-.53,0-.99,.03-1.36,.1-.37,.07-.68,.16-.91,.26-.23,.11-.4,.24-.51,.39-.11,.15-.16,.31-.16,.5s.03,.33,.08,.45c.06,.13,.13,.23,.23,.31,.1,.08,.21,.14,.34,.18,.13,.04,.27,.06,.42,.06Z"/>
      <path class="cls-4" d="M138.13,189.13v-6.59h.69c.16,0,.27,.08,.31,.24l.09,.72c.29-.32,.61-.57,.96-.77,.35-.2,.76-.29,1.23-.29,.36,0,.68,.06,.95,.18s.51,.29,.69,.51c.18,.22,.32,.48,.42,.79,.1,.31,.14,.65,.14,1.02v4.2h-1.16v-4.2c0-.5-.11-.89-.34-1.16-.23-.28-.58-.41-1.04-.41-.34,0-.66,.08-.96,.25-.3,.16-.57,.39-.82,.67v4.85h-1.16Z"/>
      <path class="cls-4" d="M149.86,183.71s-.07,.08-.1,.11c-.03,.03-.08,.04-.15,.04s-.14-.03-.21-.08c-.08-.05-.17-.11-.29-.18-.12-.07-.26-.12-.43-.18-.17-.05-.37-.08-.61-.08-.32,0-.61,.06-.85,.17-.25,.12-.45,.28-.62,.5-.17,.22-.29,.48-.38,.79-.08,.31-.13,.65-.13,1.03s.05,.75,.14,1.06c.09,.31,.22,.57,.38,.78,.16,.21,.37,.37,.6,.48,.24,.11,.5,.17,.8,.17s.51-.03,.7-.1,.33-.14,.46-.22c.12-.08,.22-.16,.3-.22,.08-.07,.16-.1,.23-.1,.1,0,.17,.04,.22,.11l.33,.42c-.29,.35-.64,.61-1.07,.77s-.88,.24-1.36,.24c-.41,0-.79-.08-1.15-.23-.35-.15-.66-.37-.92-.66-.26-.29-.47-.64-.61-1.06-.15-.42-.22-.9-.22-1.44,0-.49,.07-.94,.21-1.36s.34-.78,.6-1.08,.59-.54,.97-.71,.83-.25,1.33-.25c.46,0,.87,.07,1.22,.22,.36,.15,.67,.36,.94,.63l-.31,.42Z"/>
      <path class="cls-4" d="M151.45,189.13v-9.58h1.16v3.88c.28-.3,.59-.54,.94-.72,.34-.18,.74-.27,1.18-.27,.36,0,.68,.06,.95,.18s.51,.29,.69,.51c.18,.22,.32,.48,.42,.79,.1,.31,.14,.65,.14,1.02v4.2h-1.16v-4.2c0-.5-.11-.89-.34-1.16s-.58-.41-1.04-.41c-.34,0-.66,.08-.96,.25-.3,.16-.57,.39-.82,.67v4.85h-1.16Z"/>
      <path class="cls-4" d="M161.35,182.43c.48,0,.92,.08,1.3,.24,.39,.16,.72,.39,.99,.68s.48,.65,.62,1.07,.22,.89,.22,1.4-.07,.99-.22,1.41-.35,.77-.62,1.07c-.27,.3-.6,.52-.99,.68-.39,.16-.82,.24-1.3,.24s-.92-.08-1.3-.24c-.39-.16-.72-.38-.99-.68-.27-.29-.48-.65-.63-1.07-.15-.42-.22-.88-.22-1.41s.07-.98,.22-1.4c.15-.42,.36-.78,.63-1.07s.6-.52,.99-.68c.39-.16,.82-.24,1.3-.24Zm0,5.88c.65,0,1.14-.22,1.46-.65,.32-.44,.48-1.04,.48-1.82s-.16-1.4-.48-1.84c-.32-.44-.81-.66-1.46-.66-.33,0-.62,.06-.86,.17s-.45,.28-.61,.49c-.16,.21-.28,.47-.36,.78-.08,.31-.12,.66-.12,1.05s.04,.74,.12,1.05c.08,.31,.2,.57,.36,.78,.16,.21,.37,.37,.61,.48,.24,.11,.53,.17,.86,.17Z"/>
      <path class="cls-4" d="M171.71,181.54v2.78h2.65v.88h-2.65v2.8h-.95v-2.8h-2.63v-.88h2.63v-2.78h.95Z"/>
      <path class="cls-4" d="M183.33,189.13h-.51c-.11,0-.2-.02-.27-.05-.07-.03-.12-.11-.14-.22l-.13-.61c-.17,.16-.34,.3-.51,.42-.16,.12-.34,.23-.52,.31-.18,.08-.38,.15-.58,.19-.21,.04-.44,.07-.69,.07s-.5-.04-.72-.11c-.22-.07-.42-.18-.58-.32-.16-.14-.3-.33-.39-.55s-.15-.48-.15-.78c0-.26,.07-.51,.21-.75,.14-.24,.37-.46,.69-.64,.32-.19,.74-.34,1.25-.46s1.15-.18,1.89-.18v-.52c0-.52-.11-.9-.33-1.17-.22-.26-.54-.4-.97-.4-.28,0-.52,.04-.71,.11-.19,.07-.36,.15-.5,.24-.14,.09-.26,.17-.36,.24-.1,.07-.2,.11-.3,.11-.08,0-.15-.02-.2-.06-.06-.04-.11-.09-.14-.15l-.21-.37c.36-.35,.76-.61,1.18-.79,.42-.17,.89-.26,1.4-.26,.37,0,.7,.06,.98,.18s.53,.29,.72,.51c.2,.22,.34,.48,.44,.79s.15,.65,.15,1.02v4.22Zm-3.01-.71c.2,0,.39-.02,.56-.06,.17-.04,.33-.1,.48-.18,.15-.08,.29-.17,.43-.28,.14-.11,.27-.23,.4-.37v-1.36c-.53,0-.99,.03-1.36,.1s-.68,.16-.91,.26c-.23,.11-.4,.24-.51,.39-.11,.15-.16,.31-.16,.5s.03,.33,.08,.45c.06,.13,.13,.23,.23,.31,.1,.08,.21,.14,.34,.18s.27,.06,.42,.06Z"/>
      <path class="cls-4" d="M186.37,179.54v9.58h-1.16v-9.58h1.16Z"/>
      <path class="cls-4" d="M190.41,189.23c-.52,0-.92-.15-1.2-.44-.28-.29-.42-.71-.42-1.26v-4.03h-.79c-.07,0-.13-.02-.18-.06-.05-.04-.07-.11-.07-.19v-.46l1.08-.14,.27-2.04c0-.07,.04-.12,.08-.16,.05-.04,.11-.06,.18-.06h.59v2.27h1.89v.84h-1.89v3.96c0,.28,.07,.48,.2,.62,.13,.13,.31,.2,.52,.2,.12,0,.23-.02,.32-.05s.17-.07,.23-.11c.07-.04,.12-.07,.17-.11s.09-.05,.12-.05c.06,0,.12,.04,.16,.11l.34,.55c-.2,.19-.44,.33-.72,.44-.28,.11-.57,.16-.87,.16Z"/>
      <path class="cls-4" d="M195.94,182.43c.48,0,.92,.08,1.3,.24,.39,.16,.72,.39,.99,.68s.48,.65,.62,1.07,.22,.89,.22,1.4-.07,.99-.22,1.41-.35,.77-.62,1.07c-.27,.3-.6,.52-.99,.68-.39,.16-.82,.24-1.3,.24s-.92-.08-1.3-.24c-.39-.16-.72-.38-.99-.68-.27-.29-.48-.65-.63-1.07-.15-.42-.22-.88-.22-1.41s.07-.98,.22-1.4c.15-.42,.36-.78,.63-1.07s.6-.52,.99-.68c.39-.16,.82-.24,1.3-.24Zm0,5.88c.65,0,1.14-.22,1.46-.65,.32-.44,.48-1.04,.48-1.82s-.16-1.4-.48-1.84c-.32-.44-.81-.66-1.46-.66-.33,0-.62,.06-.86,.17s-.45,.28-.61,.49c-.16,.21-.28,.47-.36,.78-.08,.31-.12,.66-.12,1.05s.04,.74,.12,1.05c.08,.31,.2,.57,.36,.78,.16,.21,.37,.37,.61,.48,.24,.11,.53,.17,.86,.17Z"/>
      <path class="cls-4" d="M201.28,185.03c0-.93-.12-1.83-.35-2.71-.24-.88-.58-1.71-1.04-2.5-.04-.08-.07-.16-.07-.22,0-.06,.02-.11,.05-.15,.03-.04,.07-.07,.12-.1l.51-.32c.33,.5,.6,1,.83,1.49,.23,.49,.41,.98,.55,1.47s.24,.99,.31,1.49,.1,1.02,.1,1.54-.03,1.04-.1,1.55c-.07,.5-.17,1-.31,1.49s-.33,.99-.55,1.48c-.23,.49-.5,.98-.83,1.48l-.51-.31s-.09-.07-.12-.1c-.03-.04-.05-.09-.05-.15,0-.03,0-.07,.01-.1,0-.04,.03-.08,.05-.12,.45-.79,.8-1.63,1.03-2.5,.24-.87,.36-1.77,.36-2.7Z"/>
    </g>
  </g>
</svg>