<?xml version="1.0" encoding="UTF-8"?>
<svg id="Capa_1" data-name="Capa 1" xmlns="http://www.w3.org/2000/svg" viewBox="0 0 288 192">
  <defs>
    <style>
      .cls-1 {
        fill: #fff;
      }

      .cls-2 {
        fill: #cecdcd;
      }

      .cls-3 {
        fill: #ff684d;
      }

      .cls-4 {
        fill: #1b1b1b;
      }

      .cls-5 {
        fill: #ff2802;
      }

      .cls-6 {
        fill: #d22e10;
      }

      .cls-7 {
        fill: none;
      }

      .cls-8 {
        fill: #cecece;
      }
    </style>
  </defs>
  <rect class="cls-7" x=".81" width="288" height="192"/>
  <g>
    <path class="cls-8" d="M123.44,35.15h-4.93v40.09h4.93V35.15Z"/>
    <path class="cls-8" d="M168.15,35.15h-4.93v40.09h4.93V35.15Z"/>
    <path class="cls-4" d="M144.29,64.32c-8.14,0-15.92,2.79-15.92,6.35s7.79,6.35,15.92,6.35,14.51-2.79,14.51-6.35-6.38-6.35-14.51-6.35Zm0,9.92c-5.62,0-10.95-1.89-10.95-3.58s5.32-3.58,10.95-3.58,9.53,1.89,9.53,3.58-3.91,3.58-9.53,3.58h0Z"/>
    <path class="cls-4" d="M172.53,33.78l-.74-1.28c-.94-1.62-2.84-2.64-4.95-2.64h-47.02c-2.12,0-4.02,1.01-4.95,2.64l-.67,1.17c-.39,.67-.47,1.51-.11,2.19,.44,.86,1.39,1.39,2.45,1.39h53.61c1.02,0,1.94-.51,2.41-1.3,.4-.69,.39-1.48,0-2.17h0Z"/>
    <path class="cls-4" d="M93.44,137.61v3.32c0,7.84,6.32,14.22,14.08,14.22h72.12c7.76,0,14.08-6.38,14.08-14.22v-3.32H93.44Z"/>
    <path class="cls-5" d="M180.23,71.48H106.95c-7.46,0-13.5,6.08-13.5,13.57v53.04c0,1.91,1.55,3.47,3.45,3.47h5.52c.65,0,1.16,.53,1.15,1.18l-.06,2.42c-.02,.73,.19,1.45,.62,2.05,1.15,1.67,3.57,5.16,4.89,6.76,.66,.8,1.63,1.26,2.67,1.26h64.03c1.02,0,1.99-.46,2.64-1.24,1.35-1.62,3.67-5.2,4.72-6.85,.36-.56,.54-1.21,.54-1.88v-2.54c0-.64,.5-1.16,1.14-1.16h5.53c1.9,0,3.45-1.56,3.45-3.47v-53.03c0-7.49-6.04-13.57-13.5-13.57h-.02Z"/>
    <path class="cls-3" d="M104.33,87.3c0-3.71,2.99-6.71,6.68-6.71h65.15c3.69,0,6.68,3.01,6.68,6.71v2.26H104.32v-2.26h0Z"/>
    <path class="cls-4" d="M98.65,165.55c4.33,0,7.83-3.52,7.83-7.87s-3.51-7.87-7.83-7.87-7.83,3.52-7.83,7.87,3.51,7.87,7.83,7.87Z"/>
    <path class="cls-2" d="M99.84,156.68h-2.37v1.99h2.37v-1.99Z"/>
    <path class="cls-4" d="M186.68,165.43c5.36,.88,9.93-3.71,9.04-9.09-.53-3.26-3.15-5.89-6.39-6.43-5.36-.88-9.93,3.71-9.04,9.09,.53,3.26,3.15,5.89,6.39,6.43Z"/>
    <path class="cls-2" d="M189.19,156.68h-2.37v1.99h2.37v-1.99Z"/>
    <path class="cls-6" d="M176.47,144.09c0,3.71-2.63,6.71-5.86,6.71h-53.84c-3.23,0-5.86-3.01-5.86-6.71v-2.26h65.56v2.26Z"/>
    <path class="cls-4" d="M93.49,14.34h-1.22v.41h1.22v-.41Z"/>
    <path class="cls-4" d="M188.69,14.75h-2.38v-.41h2.38v.41Zm-4.76,0h-2.38v-.41h2.38v.41Zm-4.76,0h-2.38v-.41h2.38v.41Zm-4.76,0h-2.38v-.41h2.38v.41Zm-4.76,0h-2.38v-.41h2.38v.41Zm-4.76,0h-2.38v-.41h2.38v.41Zm-4.76,0h-2.38v-.41h2.38v.41Zm-4.76,0h-2.38v-.41h2.38v.41Zm-4.76,0h-2.38v-.41h2.38v.41Zm-4.76,0h-2.38v-.41h2.38v.41Zm-4.76,0h-2.38v-.41h2.38v.41Zm-4.76,0h-2.38v-.41h2.38v.41Zm-4.76,0h-2.38v-.41h2.38v.41Zm-4.76,0h-2.38v-.41h2.38v.41Zm-4.76,0h-2.38v-.41h2.38v.41Zm-4.76,0h-2.38v-.41h2.38v.41Zm-4.76,0h-2.38v-.41h2.38v.41Zm-4.76,0h-2.38v-.41h2.38v.41Zm-4.76,0h-2.38v-.41h2.38v.41Zm-4.76,0h-2.38v-.41h2.38v.41Z"/>
    <path class="cls-4" d="M192.28,14.34h-1.22v.41h1.22v-.41Z"/>
    <path class="cls-4" d="M92.34,16.08c-.84,0-1.52-.68-1.52-1.53s.68-1.53,1.52-1.53,1.52,.68,1.52,1.53-.68,1.53-1.52,1.53h0Z"/>
    <path class="cls-4" d="M192.21,16.08c.84,0,1.52-.69,1.52-1.53s-.68-1.53-1.52-1.53-1.52,.69-1.52,1.53,.68,1.53,1.52,1.53Z"/>
    <path class="cls-4" d="M79.3,162.87h-.41v1.22h.41v-1.22Z"/>
    <path class="cls-4" d="M79.3,160.41h-.41v-2.46h.41v2.46Zm0-4.92h-.41v-2.46h.41v2.46Zm0-4.92h-.41v-2.46h.41v2.46Zm0-4.92h-.41v-2.46h.41v2.46Zm0-4.92h-.41v-2.46h.41v2.46Zm0-4.92h-.41v-2.46h.41v2.46Zm0-4.92h-.41v-2.46h.41v2.46Zm0-4.92h-.41v-2.46h.41v2.46Zm0-4.92h-.41v-2.46h.41v2.46Zm0-4.92h-.41v-2.46h.41v2.46Zm0-4.92h-.41v-2.46h.41v2.46Zm0-4.92h-.41v-2.46h.41v2.46Zm0-4.92h-.41v-2.46h.41v2.46Zm0-4.92h-.41v-2.46h.41v2.46Zm0-4.92h-.41v-2.46h.41v2.46Zm0-4.92h-.41v-2.46h.41v2.46Zm0-4.92h-.41v-2.46h.41v2.46Zm0-4.92h-.41v-2.46h.41v2.46Zm0-4.92h-.41v-2.46h.41v2.46Zm0-4.92h-.41v-2.46h.41v2.46Zm0-4.92h-.41v-2.46h.41v2.46Zm0-4.92h-.41v-2.46h.41v2.46Zm0-4.92h-.41v-2.46h.41v2.46Zm0-4.92h-.41v-2.46h.41v2.46Zm0-4.92h-.41v-2.46h.41v2.46Zm0-4.92h-.41v-2.46h.41v2.46Z"/>
    <path class="cls-4" d="M79.3,31.32h-.41v1.22h.41v-1.22Z"/>
    <path class="cls-4" d="M80.62,164.02c0,.85-.68,1.53-1.52,1.53s-1.52-.68-1.52-1.53,.68-1.53,1.52-1.53,1.52,.68,1.52,1.53Z"/>
    <path class="cls-4" d="M80.62,31.41c0-.85-.68-1.53-1.52-1.53s-1.52,.68-1.52,1.53,.68,1.53,1.52,1.53,1.52-.68,1.52-1.53Z"/>
    <path class="cls-4" d="M200.3,174.06l-.28-.29,1.72-1.73,.28,.29-1.72,1.73Zm3.44-3.45l-.28-.29,1.72-1.73,.28,.29-1.72,1.73Zm3.44-3.45l-.28-.29,1.72-1.73,.28,.29-1.72,1.73Zm3.44-3.45l-.28-.29,1.72-1.73,.28,.29-1.72,1.73Zm3.44-3.45l-.28-.29,1.29-1.3,.28,.29-1.29,1.3Z"/>
    <path class="cls-4" d="M201.29,174.95c-.59,.59-1.56,.59-2.16,0-.6-.59-.59-1.56,0-2.17,.59-.59,1.56-.59,2.16,0,.59,.59,.59,1.56,0,2.17Z"/>
    <path class="cls-4" d="M216.22,159.93c.59-.59,.59-1.56,0-2.17-.59-.59-1.56-.59-2.16,0-.59,.59-.59,1.56,0,2.17,.59,.59,1.56,.59,2.16,0Z"/>
    <path class="cls-4" d="M224.57,68.93c10.73,0,19.42-8.74,19.42-19.53s-8.7-19.53-19.42-19.53-19.42,8.74-19.42,19.53,8.7,19.53,19.42,19.53Z"/>
    <path class="cls-1" d="M218.47,52.68c.16,.14,.24,.3,.24,.5s-.08,.37-.24,.52c-.16,.15-.35,.22-.58,.22h-3.79c-.24,0-.43-.07-.59-.22-.16-.15-.24-.32-.24-.52s.08-.36,.24-.5c.15-.14,.36-.21,.59-.21h1.15v-6.93c-.28,.32-.48,.56-.61,.72-.06,.08-.15,.15-.26,.2-.11,.04-.24,.07-.36,.07-.21,0-.4-.07-.55-.24-.15-.15-.23-.33-.23-.54,0-.15,.05-.29,.15-.42l2.06-2.47c.13-.17,.33-.25,.62-.25,.21,0,.4,.07,.57,.22,.16,.15,.24,.31,.24,.5v9.15h1.02c.23,0,.41,.07,.58,.21h0Z"/>
    <path class="cls-1" d="M221.84,53.63c-.45-.25-.81-.6-1.07-1.04s-.39-.92-.39-1.44v-5.69c0-.51,.13-.99,.39-1.43s.62-.78,1.07-1.04c.45-.25,.94-.38,1.47-.38s1.02,.13,1.47,.38c.45,.25,.8,.6,1.07,1.04,.27,.44,.4,.91,.4,1.43v5.69c0,.52-.13,1-.4,1.44-.27,.44-.62,.78-1.07,1.04-.45,.25-.93,.38-1.47,.38s-1.02-.13-1.47-.38Zm.55-9.16c-.25,.28-.38,.61-.38,.99v5.69c0,.38,.13,.71,.38,.99,.25,.27,.56,.41,.92,.41s.67-.14,.92-.41c.25-.27,.38-.6,.38-.99v-5.69c0-.38-.13-.72-.38-.99-.25-.28-.57-.42-.92-.42s-.67,.14-.92,.42Z"/>
    <path class="cls-1" d="M232.29,52.85c0,.12-.05,.23-.14,.32-.09,.09-.2,.14-.34,.14-.1,0-.19-.02-.27-.07s-.14-.1-.18-.17l-1.05-2.04c-.27,.29-.41,.43-.44,.45v1.38c0,.12-.05,.23-.15,.32-.1,.09-.21,.13-.35,.13s-.25-.04-.35-.13c-.1-.09-.15-.2-.15-.32v-6.05c0-.11,.05-.22,.15-.3,.1-.08,.21-.13,.35-.13s.25,.04,.35,.13c.1,.08,.15,.19,.15,.3v3.45l.48-.5c.13-.14,.27-.29,.43-.46,.15-.16,.33-.34,.53-.54,.11-.11,.23-.15,.36-.15s.25,.05,.35,.15c.08,.08,.11,.18,.11,.3s-.04,.22-.11,.31l-.98,1.01,1.2,2.26c.03,.06,.05,.13,.05,.2h0Z"/>
    <path class="cls-1" d="M236.17,54.77c-.15,.25-.36,.45-.62,.59-.26,.15-.55,.21-.86,.21-.49,0-.88-.14-1.21-.41-.32-.27-.48-.64-.48-1.08,0-.14,.05-.24,.15-.32,.1-.08,.22-.11,.36-.11s.24,.04,.34,.11c.1,.08,.15,.19,.15,.32,0,.2,.06,.35,.19,.46,.12,.11,.29,.15,.51,.15,.2,0,.37-.07,.51-.21,.14-.15,.21-.32,.21-.53v-.96c-.26,.22-.58,.33-.94,.33-.27,0-.52-.07-.75-.21-.23-.14-.43-.33-.57-.58-.14-.24-.2-.5-.18-.76v-1.54c0-.3,.06-.57,.2-.81,.13-.24,.32-.44,.56-.58s.51-.21,.83-.21c.22,0,.41,.03,.56,.09,.15,.07,.28,.16,.38,.31,0-.13,.04-.23,.13-.29,.09-.06,.19-.11,.32-.11s.23,.03,.32,.11c.1,.07,.14,.16,.14,.29v4.94c0,.3-.08,.57-.23,.82h0Zm-.96-2.54c.15-.12,.22-.28,.22-.48v-1.56c0-.22-.08-.39-.23-.51-.14-.12-.31-.19-.49-.19-.2,0-.37,.07-.53,.2-.15,.13-.23,.31-.24,.55v1.54c0,.2,.07,.37,.21,.48,.14,.11,.32,.17,.53,.17s.38-.06,.53-.18h0Z"/>
    <path class="cls-4" d="M118.15,.5c.39,0,.75,.06,1.06,.17,.32,.11,.58,.27,.81,.46,.23,.2,.4,.43,.51,.7,.12,.27,.18,.56,.18,.87,0,.27-.03,.51-.09,.72-.06,.2-.15,.39-.27,.54-.11,.15-.26,.29-.42,.39-.17,.11-.36,.2-.57,.27,.51,.16,.89,.41,1.14,.74,.25,.33,.37,.75,.37,1.25,0,.42-.08,.8-.24,1.13-.15,.33-.37,.6-.63,.82-.27,.22-.58,.39-.92,.51s-.72,.17-1.12,.17c-.43,0-.8-.05-1.12-.15-.32-.1-.59-.24-.83-.44-.23-.2-.44-.43-.6-.71s-.31-.6-.42-.97l.64-.27c.11-.05,.22-.07,.33-.07,.11,0,.19,.02,.28,.07,.08,.04,.14,.11,.19,.19,.07,.14,.15,.28,.23,.41,.08,.13,.19,.25,.3,.36,.11,.11,.26,.19,.41,.25,.16,.07,.35,.1,.57,.1,.24,0,.46-.04,.65-.12,.19-.08,.34-.19,.46-.32,.12-.13,.22-.28,.28-.43,.06-.16,.09-.32,.09-.48,0-.2-.02-.39-.06-.56-.04-.17-.14-.31-.27-.43-.14-.12-.33-.21-.59-.28-.26-.07-.6-.1-1.03-.1v-1.05c.36,0,.66-.03,.89-.1,.23-.07,.42-.15,.56-.26,.14-.11,.23-.24,.29-.41,.06-.15,.08-.33,.08-.52,0-.41-.11-.72-.33-.92-.23-.2-.52-.31-.9-.31-.35,0-.63,.09-.86,.28-.23,.19-.39,.42-.48,.71-.05,.15-.11,.26-.19,.33-.08,.07-.19,.1-.32,.1-.06,0-.13,0-.2-.02l-.76-.13c.06-.41,.17-.77,.34-1.08,.17-.31,.38-.57,.63-.77,.25-.2,.54-.37,.87-.46,.32-.1,.68-.15,1.05-.15h0Z"/>
    <path class="cls-4" d="M127.12,1.22c0,.21-.06,.37-.19,.51-.13,.13-.35,.2-.66,.2h-2.34l-.31,1.78c.38-.08,.74-.12,1.05-.12,.45,0,.84,.07,1.18,.2,.34,.13,.62,.32,.86,.55,.24,.24,.41,.51,.53,.83,.12,.32,.18,.66,.18,1.03,0,.46-.08,.86-.23,1.24-.16,.37-.38,.69-.66,.96-.28,.27-.62,.47-1,.62-.39,.15-.81,.22-1.26,.22-.27,0-.52-.02-.76-.08-.23-.06-.46-.13-.67-.22-.21-.09-.41-.2-.58-.32-.18-.12-.34-.24-.48-.38l.45-.62c.1-.13,.22-.2,.37-.2,.1,0,.19,.03,.3,.1,.1,.07,.22,.13,.35,.2,.13,.07,.29,.15,.46,.2,.18,.07,.39,.1,.64,.1,.27,0,.5-.04,.7-.13,.2-.09,.37-.21,.51-.37,.14-.15,.24-.34,.31-.55,.06-.21,.11-.45,.11-.7,0-.46-.14-.83-.41-1.09-.27-.26-.66-.39-1.18-.39-.41,0-.83,.07-1.24,.23l-.91-.26,.7-4.15h4.2v.63h0Z"/>
    <path class="cls-4" d="M135.41,4.36c-.04,.06-.09,.1-.13,.13-.04,.03-.1,.05-.18,.05s-.15-.02-.22-.07c-.07-.05-.15-.1-.25-.15-.1-.06-.21-.11-.35-.15-.14-.05-.3-.07-.5-.07-.25,0-.48,.05-.67,.14-.19,.09-.35,.23-.48,.4-.13,.17-.23,.38-.28,.63-.06,.24-.1,.53-.1,.84s.03,.61,.11,.86c.06,.25,.17,.46,.3,.64,.13,.17,.28,.3,.47,.39,.19,.09,.39,.13,.62,.13s.42-.03,.56-.09c.14-.06,.27-.12,.36-.19,.1-.07,.19-.13,.26-.19,.07-.06,.15-.08,.24-.08,.12,0,.2,.05,.27,.14l.42,.53c-.16,.19-.33,.35-.53,.47-.19,.12-.38,.23-.58,.31-.2,.07-.41,.13-.62,.16-.21,.03-.43,.05-.64,.05-.37,0-.72-.07-1.05-.21-.33-.14-.62-.34-.86-.61-.24-.27-.44-.59-.58-.99-.15-.39-.22-.83-.22-1.33,0-.45,.06-.86,.19-1.24,.13-.38,.32-.71,.56-.99,.24-.28,.55-.5,.92-.65,.36-.15,.79-.24,1.26-.24s.84,.07,1.18,.22c.34,.15,.64,.36,.92,.63l-.38,.53h0Z"/>
    <path class="cls-4" d="M136.78,9.15V3.08h.89c.19,0,.31,.09,.37,.27l.1,.45c.11-.12,.22-.23,.33-.33,.11-.1,.24-.19,.37-.25,.13-.07,.28-.13,.42-.17,.15-.04,.32-.07,.49-.07,.38,0,.7,.11,.94,.31,.24,.2,.43,.48,.55,.82,.1-.2,.21-.37,.36-.52,.14-.15,.3-.26,.46-.35,.16-.09,.35-.15,.53-.2,.19-.04,.38-.07,.58-.07,.33,0,.63,.05,.89,.15,.26,.11,.48,.25,.66,.45,.18,.2,.31,.44,.41,.72,.09,.29,.14,.61,.14,.98v3.86h-1.45v-3.86c0-.38-.08-.68-.25-.87-.17-.2-.41-.29-.75-.29-.15,0-.28,.02-.41,.07-.13,.05-.23,.12-.33,.22-.1,.1-.17,.22-.23,.37-.06,.15-.08,.31-.08,.51v3.86h-1.46v-3.86c0-.41-.08-.7-.24-.89s-.41-.28-.72-.28c-.21,0-.41,.05-.58,.15-.19,.11-.35,.24-.51,.43v4.44h-1.47Z"/>
    <path class="cls-4" d="M152.43,6.23c0,.63,.08,1.24,.24,1.83s.38,1.16,.68,1.69c.05,.1,.06,.17,.04,.23-.02,.06-.06,.1-.11,.13l-.38,.24c-.22-.34-.41-.68-.56-1.01s-.28-.68-.37-1.01c-.1-.34-.16-.68-.21-1.03-.05-.34-.06-.7-.06-1.06s.02-.72,.06-1.07c.04-.35,.11-.69,.21-1.03,.1-.33,.22-.68,.37-1.01s.34-.68,.56-1.01l.38,.24s.09,.07,.11,.13c.02,.05,0,.13-.04,.23-.3,.53-.53,1.1-.68,1.69-.15,.59-.24,1.21-.24,1.83v-.02Z"/>
    <path class="cls-4" d="M158.18,8.35v.66h-3.43v-.66h1.35V4.17c0-.13,0-.27,.02-.42l-1.08,.92s-.08,.06-.12,.07c-.04,0-.08,0-.11,0-.03,0-.06-.02-.1-.04-.02-.02-.05-.04-.06-.06l-.27-.37,1.9-1.65h.7v5.72h1.21Z"/>
    <path class="cls-4" d="M163.67,6.68v.51s-.02,.09-.05,.13c-.03,.04-.08,.06-.14,.06h-.73v1.64h-.75v-1.64h-2.78c-.06,0-.12-.02-.16-.06-.04-.04-.07-.08-.09-.14l-.09-.44,3.06-4.1h.81V6.68h.92Zm-1.67,0V3.93c0-.1,.02-.2,.03-.3l-2.22,3.05h2.19Z"/>
    <path class="cls-4" d="M165.1,2.22c.13,.21,.22,.44,.26,.68,.05,.24,.05,.47,.02,.71-.03,.24-.11,.46-.23,.67-.11,.21-.28,.41-.47,.58l-.27-.17s-.07-.07-.06-.11c0-.05,.02-.08,.05-.11,.07-.09,.14-.2,.19-.33,.06-.13,.09-.28,.11-.43,.02-.15,0-.32-.02-.48-.02-.16-.09-.33-.19-.49-.04-.07-.06-.13-.03-.18,.02-.05,.06-.09,.11-.11l.53-.21h0Z"/>
    <path class="cls-4" d="M167,2.22c.13,.21,.22,.44,.26,.68,.05,.24,.05,.47,.02,.71-.03,.24-.11,.46-.23,.67-.11,.21-.28,.41-.47,.58l-.27-.17s-.07-.07-.06-.11c0-.05,.02-.08,.05-.11,.07-.09,.14-.2,.19-.33,.06-.13,.09-.28,.11-.43,.02-.15,0-.32-.02-.48-.02-.16-.09-.33-.19-.49-.04-.07-.06-.13-.03-.18,.02-.05,.06-.09,.11-.11l.53-.21h0Z"/>
    <path class="cls-4" d="M168.95,6.23c0-.63-.08-1.24-.23-1.83s-.39-1.16-.69-1.69c-.05-.1-.06-.17-.04-.23,.02-.06,.06-.1,.11-.13l.38-.24c.22,.34,.41,.68,.56,1.01,.15,.33,.28,.68,.37,1.01,.1,.33,.17,.68,.21,1.03,.04,.34,.06,.7,.06,1.07s-.02,.72-.06,1.06c-.04,.34-.11,.68-.21,1.03-.1,.34-.22,.68-.37,1.01-.15,.33-.34,.68-.56,1.01l-.38-.24s-.09-.07-.11-.13c-.02-.06-.02-.13,.04-.23,.3-.53,.53-1.09,.69-1.69,.15-.59,.23-1.21,.23-1.83v.02Z"/>
    <path class="cls-4" d="M46.37,87.7c0,.21-.06,.37-.19,.51-.13,.13-.35,.2-.66,.2h-2.34l-.31,1.78c.38-.08,.74-.12,1.05-.12,.45,0,.84,.07,1.18,.2,.34,.14,.62,.32,.86,.55,.24,.24,.41,.51,.53,.83,.12,.32,.18,.66,.18,1.03,0,.46-.08,.87-.24,1.25-.15,.37-.38,.69-.66,.96-.28,.27-.62,.47-1,.62-.39,.15-.81,.22-1.26,.22-.27,0-.52-.02-.76-.08-.24-.06-.46-.13-.67-.22s-.41-.2-.58-.32c-.18-.12-.34-.24-.48-.38l.45-.62c.1-.13,.22-.2,.37-.2,.1,0,.19,.03,.3,.1,.1,.07,.22,.13,.35,.2,.13,.07,.29,.15,.46,.2,.17,.06,.39,.1,.64,.1,.27,0,.5-.04,.7-.13,.2-.09,.37-.2,.51-.37,.14-.16,.24-.34,.31-.55,.07-.21,.11-.45,.11-.7,0-.46-.14-.83-.41-1.09-.27-.26-.66-.39-1.18-.39-.41,0-.83,.07-1.24,.23l-.91-.26,.7-4.15h4.2v.62h0Z"/>
    <path class="cls-4" d="M53.2,87.7c0,.21-.06,.37-.19,.51-.13,.13-.35,.2-.66,.2h-2.34l-.31,1.78c.38-.08,.74-.12,1.05-.12,.45,0,.84,.07,1.18,.2,.34,.14,.62,.32,.86,.55s.41,.51,.53,.83c.12,.32,.18,.66,.18,1.03,0,.46-.08,.87-.24,1.25-.15,.37-.38,.69-.66,.96-.28,.27-.62,.47-1,.62-.39,.15-.81,.22-1.26,.22-.27,0-.52-.02-.76-.08-.24-.06-.46-.13-.67-.22s-.41-.2-.58-.32c-.18-.12-.34-.24-.48-.38l.45-.62c.1-.13,.22-.2,.37-.2,.1,0,.19,.03,.3,.1,.1,.07,.22,.13,.35,.2,.13,.07,.29,.15,.46,.2,.17,.06,.39,.1,.64,.1,.27,0,.5-.04,.71-.13,.2-.09,.37-.2,.51-.37,.14-.16,.24-.34,.31-.55,.07-.21,.11-.45,.11-.7,0-.46-.14-.83-.41-1.09-.27-.26-.66-.39-1.18-.39-.41,0-.83,.07-1.24,.23l-.91-.26,.71-4.15h4.2v.62h0Z"/>
    <path class="cls-4" d="M61.49,90.84c-.04,.06-.09,.1-.13,.13-.04,.03-.1,.05-.18,.05s-.15-.02-.22-.06c-.07-.04-.15-.1-.25-.15-.1-.06-.21-.11-.35-.15-.14-.05-.3-.07-.5-.07-.25,0-.48,.05-.67,.14s-.35,.23-.48,.4c-.13,.17-.23,.38-.28,.63-.06,.24-.1,.53-.1,.84s.03,.61,.11,.86c.06,.25,.17,.46,.3,.64,.13,.17,.28,.3,.47,.39,.19,.09,.39,.13,.62,.13s.42-.03,.56-.09c.14-.06,.27-.12,.36-.19,.1-.07,.19-.13,.26-.19,.07-.06,.15-.09,.24-.09,.12,0,.2,.05,.27,.14l.42,.53c-.16,.19-.33,.35-.53,.47-.19,.12-.38,.23-.58,.31-.2,.07-.41,.13-.62,.16-.21,.03-.43,.05-.64,.05-.37,0-.72-.07-1.05-.21-.33-.14-.62-.34-.86-.61-.24-.27-.44-.59-.58-.99-.15-.39-.22-.83-.22-1.33,0-.45,.06-.86,.19-1.24,.13-.38,.32-.71,.56-.99,.24-.28,.55-.5,.92-.65,.36-.15,.79-.24,1.26-.24s.84,.07,1.18,.22c.34,.15,.64,.36,.92,.63l-.38,.53h0Z"/>
    <path class="cls-4" d="M62.86,95.63v-6.07h.89c.19,0,.31,.09,.37,.27l.1,.45c.11-.11,.22-.23,.33-.33,.11-.1,.24-.19,.37-.25,.13-.07,.28-.13,.42-.17,.15-.04,.32-.07,.49-.07,.38,0,.7,.11,.94,.31,.24,.2,.43,.48,.55,.82,.1-.2,.21-.37,.36-.51,.14-.15,.3-.26,.46-.35,.17-.09,.35-.15,.53-.2,.19-.04,.38-.07,.58-.07,.33,0,.63,.05,.89,.15,.26,.11,.48,.25,.66,.45,.18,.2,.31,.44,.41,.72,.1,.29,.14,.61,.14,.98v3.86h-1.45v-3.86c0-.38-.08-.68-.25-.87-.17-.2-.41-.29-.75-.29-.15,0-.28,.02-.41,.07-.13,.05-.24,.12-.33,.22-.1,.1-.17,.22-.23,.37s-.08,.31-.08,.51v3.86h-1.46v-3.86c0-.41-.08-.7-.24-.89-.16-.19-.41-.28-.72-.28-.21,0-.41,.05-.58,.15-.19,.11-.35,.24-.51,.43v4.44h-1.47Z"/>
    <path class="cls-4" d="M53.44,104.79c0,.63,.08,1.24,.24,1.83,.15,.59,.38,1.16,.68,1.69,.05,.1,.06,.17,.04,.23-.02,.06-.06,.1-.11,.13l-.38,.24c-.22-.34-.41-.68-.56-1.01-.15-.33-.28-.68-.37-1.01-.1-.34-.16-.68-.21-1.03-.04-.34-.06-.7-.06-1.06s.02-.72,.06-1.07c.04-.34,.11-.68,.21-1.03,.1-.34,.22-.68,.37-1.01,.15-.33,.34-.68,.56-1.01l.38,.24s.09,.07,.11,.13c.02,.06,0,.13-.04,.23-.3,.53-.53,1.1-.68,1.69-.15,.59-.24,1.21-.24,1.83v-.02Z"/>
    <path class="cls-4" d="M59.04,106.75c.1,0,.17,.02,.22,.08,.06,.06,.08,.12,.08,.21v.52h-4.25v-.3c0-.06,0-.12,.03-.19,.02-.06,.06-.13,.12-.18l2-2.02c.17-.17,.32-.33,.45-.49,.14-.15,.25-.31,.34-.46,.09-.15,.17-.32,.22-.48,.05-.16,.08-.33,.08-.51s-.03-.33-.08-.47c-.06-.14-.13-.24-.23-.33-.1-.09-.21-.15-.34-.2-.13-.04-.28-.07-.43-.07s-.29,.02-.42,.07c-.13,.04-.24,.11-.34,.19-.1,.08-.19,.17-.25,.29-.06,.11-.11,.23-.15,.36-.04,.11-.1,.19-.15,.23-.06,.04-.15,.05-.28,.02l-.45-.08c.04-.29,.12-.55,.24-.78,.12-.23,.28-.42,.45-.56,.19-.15,.39-.27,.63-.34,.23-.07,.49-.11,.76-.11s.53,.04,.77,.12c.24,.08,.44,.2,.61,.35,.17,.15,.31,.34,.41,.56,.1,.22,.15,.47,.15,.75,0,.24-.03,.46-.11,.66-.06,.2-.16,.4-.28,.58-.12,.18-.26,.36-.41,.54-.15,.17-.32,.35-.5,.52l-1.6,1.65c.12-.03,.25-.06,.37-.08,.12-.02,.24-.03,.36-.03h1.99Z"/>
    <path class="cls-4" d="M64.15,106.75c.1,0,.17,.02,.22,.08,.06,.06,.08,.12,.08,.21v.52h-4.25v-.3c0-.06,0-.12,.03-.19,.02-.06,.06-.13,.12-.18l2-2.02c.17-.17,.32-.33,.45-.49,.14-.15,.25-.31,.34-.46,.09-.15,.17-.32,.22-.48,.05-.16,.08-.33,.08-.51s-.03-.33-.08-.47c-.06-.14-.13-.24-.23-.33-.1-.09-.21-.15-.34-.2-.13-.04-.28-.07-.43-.07s-.29,.02-.42,.07c-.13,.04-.24,.11-.34,.19-.1,.08-.19,.17-.25,.29-.06,.11-.11,.23-.15,.36-.04,.11-.1,.19-.15,.23-.06,.04-.15,.05-.28,.02l-.45-.08c.04-.29,.12-.55,.24-.78,.12-.23,.28-.42,.45-.56,.19-.15,.39-.27,.63-.34,.24-.07,.49-.11,.76-.11s.53,.04,.77,.12c.24,.08,.44,.2,.61,.35,.17,.15,.31,.34,.41,.56,.1,.22,.15,.47,.15,.75,0,.24-.03,.46-.11,.66-.06,.2-.16,.4-.28,.58-.12,.18-.26,.36-.41,.54-.15,.17-.32,.35-.5,.52l-1.6,1.65c.12-.03,.25-.06,.37-.08,.12-.02,.24-.03,.36-.03h1.99Z"/>
    <path class="cls-4" d="M66.11,100.77c.13,.22,.22,.44,.26,.68,.05,.24,.05,.47,.02,.71-.03,.24-.11,.46-.23,.67-.12,.21-.28,.41-.47,.58l-.27-.17s-.07-.07-.06-.11c0-.05,.02-.08,.05-.11,.07-.09,.14-.2,.19-.33,.06-.13,.09-.28,.11-.43,.02-.15,0-.32-.02-.48-.03-.16-.09-.33-.19-.49-.04-.07-.06-.13-.03-.18,.02-.06,.06-.09,.11-.11l.53-.21h0Z"/>
    <path class="cls-4" d="M68.01,100.77c.13,.22,.22,.44,.26,.68,.05,.24,.05,.47,.02,.71-.03,.24-.11,.46-.23,.67-.12,.21-.28,.41-.47,.58l-.27-.17s-.07-.07-.06-.11c0-.05,.02-.08,.05-.11,.07-.09,.14-.2,.19-.33,.06-.13,.09-.28,.11-.43,.02-.15,0-.32-.02-.48-.03-.16-.09-.33-.19-.49-.04-.07-.06-.13-.03-.18,.02-.06,.06-.09,.11-.11l.53-.21h0Z"/>
    <path class="cls-4" d="M69.96,104.79c0-.63-.08-1.24-.24-1.83-.15-.59-.39-1.16-.69-1.69-.05-.1-.06-.17-.04-.23,.02-.06,.06-.1,.11-.13l.38-.24c.22,.34,.41,.68,.56,1.01,.15,.33,.28,.68,.37,1.01,.1,.33,.17,.68,.21,1.03,.04,.34,.06,.7,.06,1.07s-.02,.72-.06,1.06c-.04,.34-.11,.68-.21,1.03-.1,.34-.22,.68-.37,1.01-.15,.33-.34,.68-.56,1.01l-.38-.24s-.09-.07-.11-.13c-.02-.06,0-.13,.04-.23,.3-.53,.53-1.1,.69-1.69,.16-.59,.24-1.21,.24-1.83v.02Z"/>
    <path class="cls-4" d="M215.22,169.58c.39,0,.75,.06,1.08,.17,.32,.11,.61,.28,.83,.5,.24,.21,.41,.47,.54,.77,.13,.3,.19,.64,.19,1,0,.32-.05,.61-.14,.87-.09,.27-.22,.52-.37,.77-.15,.24-.34,.48-.54,.71-.21,.23-.42,.46-.66,.7l-1.92,1.97c.19-.06,.37-.1,.55-.13s.36-.04,.52-.04h2.18c.15,0,.28,.04,.37,.13s.14,.2,.14,.35v.87h-5.83v-.49c0-.1,.02-.2,.06-.31,.04-.11,.11-.2,.19-.29l2.58-2.6c.22-.22,.41-.43,.58-.64,.17-.2,.32-.4,.43-.59,.11-.2,.2-.4,.27-.6,.06-.2,.09-.42,.09-.64,0-.2-.03-.38-.09-.55-.06-.15-.15-.29-.25-.39-.11-.11-.24-.19-.39-.24-.15-.06-.32-.08-.51-.08-.35,0-.64,.09-.86,.27-.23,.18-.38,.42-.47,.72-.04,.15-.11,.25-.19,.32-.09,.07-.19,.1-.33,.1-.06,0-.12,0-.19-.02l-.76-.14c.06-.41,.17-.77,.34-1.08,.17-.31,.38-.57,.63-.77s.54-.37,.87-.46c.32-.11,.68-.15,1.05-.15v.02Z"/>
    <path class="cls-4" d="M224.32,170.3c0,.21-.06,.37-.19,.51s-.35,.2-.66,.2h-2.34l-.31,1.78c.38-.08,.74-.11,1.05-.11,.45,0,.84,.07,1.18,.2,.34,.14,.62,.32,.86,.55s.41,.51,.53,.83c.12,.32,.18,.66,.18,1.03,0,.46-.08,.86-.23,1.25-.16,.37-.38,.69-.66,.96-.28,.27-.62,.47-1,.62-.39,.15-.81,.22-1.26,.22-.27,0-.52-.03-.76-.08-.24-.06-.46-.13-.67-.22-.21-.09-.41-.2-.58-.32s-.34-.24-.48-.38l.45-.62c.1-.13,.22-.2,.37-.2,.1,0,.19,.03,.3,.1,.1,.07,.22,.13,.35,.2,.13,.07,.29,.15,.46,.2,.18,.06,.39,.1,.64,.1,.27,0,.5-.04,.7-.13,.2-.09,.37-.2,.51-.37,.14-.16,.24-.34,.31-.55s.11-.45,.11-.7c0-.46-.14-.83-.41-1.09-.27-.26-.66-.39-1.18-.39-.41,0-.83,.07-1.24,.23l-.91-.26,.7-4.15h4.2v.62h0Z"/>
    <path class="cls-4" d="M232.61,173.45c-.04,.06-.09,.1-.13,.13-.04,.03-.1,.05-.18,.05s-.15-.02-.22-.07c-.07-.05-.15-.1-.25-.15-.1-.06-.21-.11-.35-.15-.14-.04-.3-.06-.5-.06-.25,0-.48,.05-.67,.14-.19,.09-.35,.23-.48,.4-.13,.17-.23,.38-.28,.63-.06,.24-.1,.52-.1,.84s.03,.61,.11,.86c.06,.25,.17,.46,.3,.64,.13,.17,.28,.3,.47,.39,.19,.09,.39,.13,.62,.13s.42-.03,.56-.09c.14-.06,.27-.12,.36-.19,.1-.07,.19-.13,.26-.19,.07-.06,.15-.09,.24-.09,.12,0,.2,.05,.27,.14l.42,.53c-.16,.19-.33,.35-.53,.48-.19,.13-.38,.23-.58,.31-.2,.07-.41,.13-.62,.16-.21,.03-.43,.05-.64,.05-.37,0-.72-.07-1.05-.21s-.62-.34-.86-.61c-.24-.27-.44-.59-.58-.99-.15-.39-.22-.83-.22-1.33,0-.45,.06-.86,.19-1.24,.13-.38,.32-.71,.56-.99,.24-.28,.55-.5,.92-.65,.36-.15,.79-.24,1.26-.24s.84,.07,1.18,.22c.34,.15,.64,.36,.92,.63l-.38,.53h0Z"/>
    <path class="cls-4" d="M213.57,187.39c0,.63,.08,1.24,.24,1.83,.15,.59,.38,1.16,.68,1.69,.05,.1,.06,.17,.04,.23-.02,.06-.06,.1-.11,.13l-.38,.24c-.22-.34-.41-.68-.56-1.01-.15-.33-.28-.68-.37-1.01-.1-.33-.16-.68-.21-1.03-.04-.35-.06-.7-.06-1.06s.02-.72,.06-1.07c.04-.34,.11-.68,.21-1.03,.1-.34,.22-.68,.37-1.01,.15-.33,.34-.68,.56-1.01l.38,.24s.09,.07,.11,.13c.02,.05,0,.13-.04,.23-.3,.53-.53,1.1-.68,1.69-.15,.59-.24,1.21-.24,1.83v-.02Z"/>
    <path class="cls-4" d="M219.33,189.51v.66h-3.43v-.66h1.35v-4.17c0-.13,0-.27,.02-.42l-1.08,.92s-.08,.06-.12,.06c-.04,0-.08,0-.11,0-.04,0-.07-.02-.1-.04-.02-.02-.05-.04-.06-.06l-.27-.37,1.9-1.65h.7v5.73h1.21Z"/>
    <path class="cls-4" d="M224.8,186.99c0,.55-.06,1.04-.18,1.45-.12,.41-.28,.75-.49,1.01-.21,.27-.45,.46-.73,.59-.28,.13-.58,.2-.91,.2s-.62-.07-.91-.2c-.28-.13-.53-.33-.73-.59-.2-.27-.36-.6-.49-1.01-.12-.41-.18-.89-.18-1.45s.06-1.03,.18-1.45c.12-.41,.28-.75,.49-1.02,.2-.27,.45-.46,.73-.59,.28-.13,.58-.2,.91-.2s.62,.07,.91,.2c.28,.13,.53,.33,.73,.59,.21,.27,.37,.6,.49,1.02,.12,.41,.18,.9,.18,1.45Zm-.89,0c0-.48-.04-.88-.11-1.2-.08-.33-.19-.58-.32-.78-.13-.2-.28-.33-.45-.42-.17-.09-.35-.12-.53-.12s-.36,.04-.54,.12c-.17,.08-.32,.22-.45,.42-.13,.2-.23,.46-.31,.78-.07,.32-.11,.72-.11,1.2s.04,.88,.11,1.21,.18,.58,.31,.77c.13,.2,.28,.33,.45,.42,.17,.08,.35,.12,.54,.12s.36-.04,.53-.12c.17-.08,.32-.22,.45-.42,.13-.2,.24-.46,.32-.77,.08-.33,.11-.72,.11-1.21Z"/>
    <path class="cls-4" d="M226.24,183.38c.13,.22,.22,.44,.26,.68,.05,.24,.05,.47,.02,.71-.03,.24-.11,.46-.23,.67-.11,.21-.28,.41-.47,.58l-.27-.17s-.07-.07-.06-.11c0-.04,.02-.08,.05-.11,.07-.09,.14-.2,.19-.33,.06-.13,.09-.28,.11-.43,.02-.15,0-.32-.02-.48-.03-.16-.09-.33-.19-.49-.04-.07-.06-.13-.03-.18,.02-.05,.06-.09,.11-.11l.53-.21h0Z"/>
    <path class="cls-4" d="M228.15,183.38c.13,.22,.22,.44,.26,.68,.04,.24,.05,.47,.02,.71-.03,.24-.11,.46-.23,.67-.12,.21-.28,.41-.47,.58l-.27-.17s-.07-.07-.06-.11c0-.04,.02-.08,.05-.11,.07-.09,.14-.2,.19-.33,.06-.13,.09-.28,.11-.43,.02-.15,0-.32-.02-.48-.03-.16-.09-.33-.19-.49-.04-.07-.06-.13-.03-.18,.02-.05,.06-.09,.11-.11l.53-.21h0Z"/>
    <path class="cls-4" d="M230.09,187.39c0-.63-.08-1.24-.23-1.83-.15-.59-.39-1.16-.69-1.69-.05-.1-.06-.17-.04-.23,.02-.06,.06-.1,.11-.13l.38-.24c.22,.34,.41,.68,.56,1.01,.15,.33,.28,.68,.37,1.01,.1,.34,.17,.68,.21,1.03,.04,.35,.06,.7,.06,1.07s-.02,.72-.06,1.06c-.04,.34-.11,.68-.21,1.03-.1,.34-.22,.68-.37,1.01-.15,.33-.34,.68-.56,1.01l-.38-.24s-.09-.07-.11-.13c-.02-.05-.02-.13,.04-.23,.3-.53,.53-1.1,.69-1.69,.15-.59,.23-1.21,.23-1.83v.02Z"/>
    <path class="cls-4" d="M224.57,99.47c7.05,0,12.76-5.74,12.76-12.83s-5.71-12.83-12.76-12.83-12.76,5.74-12.76,12.83,5.71,12.83,12.76,12.83Z"/>
    <path class="cls-1" d="M217.1,89.25c-.09-.1-.14-.21-.14-.33,0-.06,.02-.13,.05-.2l2.13-3.41c.27-.38,.4-.75,.4-1.11,0-.23-.07-.42-.23-.59-.15-.16-.33-.24-.54-.24s-.4,.08-.56,.25c-.16,.17-.24,.37-.24,.62,0,.11-.05,.22-.14,.3-.1,.08-.21,.13-.36,.13s-.25-.04-.35-.13c-.1-.08-.14-.19-.14-.3,0-.32,.08-.61,.24-.88,.15-.27,.37-.48,.65-.64,.28-.15,.57-.24,.89-.24s.62,.07,.88,.23c.28,.15,.49,.36,.65,.62,.16,.26,.23,.55,.23,.86s-.05,.58-.15,.82c-.11,.24-.24,.5-.41,.77l-1.69,2.72h1.83c.15,0,.26,.04,.36,.13,.1,.08,.14,.19,.14,.31,0,.13-.05,.24-.14,.33-.1,.08-.21,.13-.36,.13h-2.67c-.15,0-.26-.05-.35-.15h0Z"/>
    <path class="cls-1" d="M221.72,89.25c-.09-.1-.14-.21-.14-.33,0-.06,.02-.13,.05-.2l2.13-3.41c.27-.38,.4-.75,.4-1.11,0-.23-.07-.42-.23-.59-.15-.16-.33-.24-.54-.24s-.4,.08-.56,.25c-.16,.17-.23,.37-.23,.62,0,.11-.05,.22-.14,.3-.1,.08-.21,.13-.36,.13s-.25-.04-.35-.13c-.1-.08-.14-.19-.14-.3,0-.32,.08-.61,.23-.88,.15-.27,.37-.48,.65-.64,.28-.15,.57-.24,.89-.24s.62,.07,.88,.23c.28,.15,.49,.36,.65,.62,.16,.26,.24,.55,.24,.86s-.05,.58-.15,.82c-.11,.24-.24,.5-.41,.77l-1.69,2.72h1.83c.15,0,.26,.04,.36,.13,.1,.08,.14,.19,.14,.31,0,.13-.05,.24-.14,.33-.1,.08-.21,.13-.36,.13h-2.67c-.15,0-.26-.05-.35-.15h0Z"/>
    <path class="cls-1" d="M227.65,89.32c-.15-.08-.27-.2-.36-.35-.09-.15-.13-.31-.13-.49v-3.63c0-.09,.03-.16,.11-.22,.07-.06,.15-.09,.24-.09s.18,.03,.24,.09c.06,.06,.11,.13,.11,.22v3.63c0,.09,.02,.17,.08,.24,.05,.07,.12,.1,.19,.1s.14-.03,.19-.1c.05-.07,.07-.15,.07-.25s.03-.17,.11-.23c.06-.05,.15-.08,.24-.08s.18,.03,.25,.09c.07,.06,.11,.14,.11,.23,0,.18-.04,.34-.13,.49-.09,.15-.2,.26-.35,.35-.15,.09-.32,.13-.49,.13s-.34-.04-.49-.13h0Z"/>
    <path class="cls-1" d="M231.16,86.14c.19,0,.36,.05,.54,.14,.17,.09,.3,.22,.41,.38,.1,.16,.14,.35,.12,.55v1.12c0,.22-.05,.42-.15,.59-.11,.17-.23,.3-.4,.39-.16,.09-.33,.14-.5,.14-.32,0-.54-.1-.69-.3-.06,.2-.17,.29-.34,.29-.09,0-.17-.03-.24-.09-.07-.06-.11-.14-.11-.23v-4.29c0-.08,.03-.15,.11-.21,.07-.06,.15-.09,.24-.09s.19,.03,.25,.09c.06,.06,.11,.13,.11,.21v1.58c.19-.19,.41-.28,.67-.28h0Zm.22,.73c-.1-.08-.23-.12-.38-.12s-.27,.04-.36,.13c-.1,.09-.15,.2-.15,.35v1.1c0,.15,.05,.26,.15,.35,.1,.08,.22,.13,.37,.13s.28-.04,.38-.12c.11-.08,.15-.2,.15-.34v-1.12c0-.15-.05-.26-.15-.34h0Z"/>
    <path class="cls-4" d="M233.98,178.23v-6.07h.89c.19,0,.31,.09,.37,.27l.1,.45c.11-.11,.22-.23,.33-.33,.11-.1,.24-.19,.37-.25,.13-.07,.28-.13,.42-.17,.15-.04,.32-.07,.49-.07,.38,0,.7,.11,.94,.31,.24,.2,.43,.48,.55,.82,.1-.2,.21-.37,.36-.51,.14-.15,.3-.26,.46-.35,.17-.09,.35-.15,.53-.2,.19-.04,.38-.07,.58-.07,.33,0,.63,.05,.89,.15,.26,.11,.48,.25,.66,.45,.18,.2,.31,.44,.41,.72,.1,.29,.14,.61,.14,.98v3.86h-1.45v-3.86c0-.38-.08-.68-.25-.87-.17-.2-.41-.29-.75-.29-.15,0-.28,.02-.41,.07-.13,.05-.24,.12-.33,.22-.1,.1-.17,.22-.23,.37s-.08,.31-.08,.51v3.86h-1.46v-3.86c0-.41-.08-.7-.24-.89-.16-.19-.41-.28-.72-.28-.21,0-.41,.05-.58,.15-.19,.11-.35,.24-.51,.43v4.44h-1.47Z"/>
  </g>
</svg>